<?xml version="1.0"?><svg width="640" height="480" xmlns="http://www.w3.org/2000/svg">
 <g>
  <title>Layer 1</title>
  <path fill="#30394a" stroke-width="0.3" stroke-miterlimit="4" id="path1936" d="m330.668701,461.298676c-2.72702,-0.568756 -11.662079,-7.388489 -19.809753,-15.119904l-4.260834,-4.04306l-5.474121,2.168213c-7.873352,3.118561 -7.901245,3.127747 -13.713806,4.493652c-6.183441,1.453156 -6.608398,1.511749 -15.890808,2.189728c-14.533417,1.061584 -32.227158,-1.333984 -42.964203,-5.816833c-23.566742,-9.839447 -38.687164,-23.618958 -49.029129,-44.681091c-1.6689,-3.398895 -4.48613,-8.825195 -6.260468,-12.058472c-7.366394,-13.423401 -10.076248,-26.601959 -9.628098,-46.823578c0.263733,-11.897766 0.231537,-12.352295 -0.952042,-13.452301c-1.766281,-1.641541 -8.215622,-3.965576 -12.989044,-4.680634c-9.451355,-1.415771 -19.662033,-9.342926 -24.740845,-19.207794c-0.331871,-0.644531 -1.126381,-1.263367 -1.765656,-1.375183c-2.667038,-0.466522 -15.840622,-14.941376 -18.791405,-20.647583c-0.536499,-1.037415 -6.472374,-7.6315 -13.190872,-14.653473c-6.718491,-7.021973 -13.920959,-14.63092 -16.005447,-16.908798c-9.538048,-10.423187 -24.535503,-29.413879 -31.74609,-40.198883c-0.809216,-1.210434 -2.431526,-3.514709 -3.605061,-5.120605c-1.173485,-1.605957 -4.204224,-6.230438 -6.734951,-10.276718c-23.404095,-37.420334 -34.359415,-67.799088 -33.004186,-91.519638c0.338135,-5.918068 1.575839,-12.151871 3.247675,-16.35688c1.075883,-2.706108 4.981093,-8.100632 9.036119,-12.482094c2.097066,-2.265877 4.222542,-4.914391 4.723223,-5.885475c1.773006,-3.438843 9.694897,-13.575993 12.7689,-16.339443c3.607439,-3.243122 9.700487,-6.301083 16.299597,-8.180485c2.544079,-0.724552 4.928928,-1.538738 5.299713,-1.809235c0.370739,-0.270496 0.856571,-1.475548 1.079609,-2.677906c0.574375,-3.096771 3.631714,-8.598263 6.633938,-11.937433c2.613377,-2.906744 9.225422,-8.199476 10.243343,-8.199476c0.649307,0 -1.864548,4.431145 -3.505905,6.179779c-0.607651,0.647446 -1.873199,2.368908 -2.812302,3.825617c-0.93911,1.456661 -2.041126,2.860224 -2.448864,3.119131c-0.407791,0.25885 -0.741421,0.858326 -0.741421,1.332199c0,0.473873 -0.233967,1.321438 -0.519882,1.883545c-1.630901,3.205963 -2.064308,4.518497 -2.142036,6.487072c-0.139004,3.520912 -0.957218,7.117485 -1.773266,7.794739c-1.360661,1.129284 -1.485432,-0.388229 -0.335701,-4.082348c0.613857,-1.972454 0.92886,-3.586281 0.700024,-3.586281c-0.700439,0 -3.274899,3.778271 -3.10376,4.555038c0.08844,0.401215 -0.122494,1.781235 -0.468647,3.066807c-0.538616,2.000244 -0.945267,2.425056 -2.819962,2.945663c-1.204845,0.334614 -2.455437,0.617271 -2.779133,0.628036c-0.323746,0.010818 -1.361023,0.806835 -2.305202,1.768917c-0.944126,0.962139 -2.060478,1.74931 -2.480843,1.74931c-1.240242,0 -4.809803,3.452499 -7.550739,7.303108c-3.195564,4.489265 -5.550137,10.217682 -6.015318,14.634697c-0.327475,3.109451 -0.267548,3.363754 0.704836,2.990585c0.913282,-0.350456 0.993237,-0.207573 0.568369,1.015694c-0.705404,2.031136 -0.602938,8.169716 0.244778,14.665901c0.401323,3.075195 0.693348,6.519463 0.942732,7.604919c0.865517,3.767036 1.640682,6.790329 3.213829,11.116524c0.310966,0.855171 0.784634,2.70916 1.157906,4.084885c0.373272,1.375717 0.910492,2.501335 1.193718,2.501335c0.990185,0 5.819649,-7.07045 6.728069,-9.849945c0.503994,-1.542145 1.143261,-5.585426 1.420639,-8.985092c0.531269,-6.512428 2.037037,-8.406265 6.616394,-14.700096c1.295769,-1.780823 0.689415,-36.866035 1.848045,-36.882439c1.731091,-0.024475 1.785011,36.38485 2.852612,41.872894c1.596077,8.20475 6.435581,25.173218 9.400024,32.958794c0.616295,1.618538 2.178734,5.723656 3.472069,9.122551c3.16539,8.318344 12.331406,28.474869 14.720131,32.3703c0.297775,0.485504 2.536736,4.631058 4.975502,9.212219c2.438774,4.581177 6.23526,11.311157 8.4366,14.95549c2.20134,3.644394 4.664589,7.739014 5.473854,9.099152c8.071091,13.565475 10.532211,17.466965 12.614479,19.996918c1.332092,1.6185 4.199768,5.591248 6.372597,8.828247c2.172882,3.237015 4.560989,6.642212 5.307022,7.567047l1.356354,1.681519l2.719261,-1.835236c4.487961,-3.02887 9.870132,-5.263428 16.682343,-6.926208c3.545334,-0.865356 6.531204,-1.634827 6.635223,-1.709869c0.180252,-0.130051 -3.345169,-5.750916 -7.16954,-11.431061c-0.980774,-1.45665 -3.651642,-5.159485 -5.935364,-8.228409c-2.283737,-3.068985 -4.814301,-6.831345 -5.623566,-8.360886c-3.5867,-6.778885 -4.89949,-9.077301 -5.712799,-10.001968c-0.993027,-1.129089 -1.371933,-1.826996 -6.75425,-12.441849c-10.015999,-19.753189 -16.65802,-33.626938 -20.196838,-42.186859c-0.736038,-1.78035 -2.660255,-6.282761 -4.276047,-10.005348c-3.375137,-7.775948 -12.366692,-32.290756 -14.629936,-39.887337c-5.479904,-18.393562 -6.238976,-21.847305 -7.23082,-32.899914c-0.994736,-11.084438 -0.828255,-17.768002 0.572716,-22.995892c1.718987,-6.414724 5.030724,-12.758032 8.660263,-16.587893l3.107536,-3.27914l-1.798004,2.755636c-2.489426,3.815269 -4.477669,8.487051 -6.036324,14.183691c-1.178558,4.307207 -1.320099,6.15877 -1.292252,16.902327c0.034668,13.401131 0.855064,19.533451 4.718506,35.270992c10.290031,41.915482 37.177315,96.03511 72.634911,146.201935c1.335876,1.890076 3.914688,6.127609 5.730637,9.41684c1.81601,3.289185 6.301804,10.462662 9.968506,15.941071c6.33136,9.459686 7.428818,11.55304 5.081329,9.692474c-0.958313,-0.759583 -0.955917,-0.697388 0.032806,0.849976c0.586746,0.918243 0.961105,1.775299 0.831894,1.90451c-0.129227,0.129211 -1.876373,-0.959442 -3.882614,-2.419312c-5.777771,-4.204163 -10.043777,-6.093719 -16.397293,-7.262863c-6.789017,-1.249237 -8.689392,-1.190811 -13.420837,0.412827c-5.322586,1.803955 -8.817642,3.984375 -12.849792,8.016541c-3.695831,3.695831 -7.455208,9.763885 -7.455208,12.033478c0,1.489899 -1.147911,1.685272 -1.244888,0.211853c-0.22879,-3.477173 2.410606,-9.15921 6.313026,-13.590546l2.768585,-3.143738l-2.923004,-2.74176l-2.660988,-3.540237c-1.518295,1.736847 -2.974686,3.746719 -4.71991,5.698471c-6.069344,6.70343 -9.892372,16.082336 -9.892372,24.268677c0,3.386108 0.226921,4.214294 1.699631,6.203217c3.099815,4.186279 9.417664,9.94516 10.93322,9.965942c1.245567,0.017151 3.846565,2.382843 3.846565,3.498688c0,1.010468 4.026154,6.211151 6.926697,8.947418c6.433609,6.069183 13.785049,8.71051 23.08934,8.295929c4.811371,-0.214355 6.148895,-0.517456 9.589386,-2.173035c8.821259,-4.244843 15.056671,-12.737732 15.445343,-21.037262c0.103729,-2.213867 0.05751,-3.296875 -0.1026,-2.406677c-0.556274,3.092163 -1.341721,1.592346 -1.541168,-2.94278l-0.200592,-4.561218l-0.118454,4.561218c-0.150482,5.795959 -1.256592,6.026978 -1.408951,0.294342l-0.113373,-4.267029l-0.18428,3.825592c-0.382965,7.949615 -1.647476,8.77124 -1.54155,1.001648l0.065781,-4.82724l-0.408722,4.540131c-0.514648,5.716095 -1.20639,6.543488 -1.32991,1.590607c-0.051865,-2.077087 -0.189514,-2.849579 -0.306046,-1.716614c-0.393463,3.826599 -0.764832,4.759918 -1.823578,4.583252c-0.557297,-0.093048 -1.211884,-0.43396 -1.454636,-0.75766c-0.285721,-0.380951 -0.602264,-0.340576 -0.8974,0.114502c-0.665405,1.02594 -2.626358,0.555542 -3.139313,-0.753052c-0.407516,-1.039612 -0.445053,-1.027039 -0.483185,0.162384c-0.056152,1.750336 -1.216125,2.372162 -1.227493,0.65799c-0.007309,-1.098328 -0.120178,-1.189606 -0.588562,-0.476074c-0.515121,0.784668 -0.643875,0.784668 -1.158524,0c-0.318481,-0.485596 -0.750656,-2.14682 -0.960434,-3.691711c-0.209747,-1.54483 -0.611328,-2.950928 -0.892334,-3.124603c-0.281052,-0.173676 -0.510971,-0.788818 -0.510971,-1.366913c0,-0.578156 -0.523453,-1.524902 -1.163239,-2.103851c-0.639786,-0.579041 -1.009293,-1.301788 -0.821167,-1.606171c0.470917,-0.761963 -1.905182,-3.237579 -5.04631,-5.25769c-3.70105,-1.095642 -2.525177,-1.367126 -5.034592,-2.725769c-2.540253,-0.437988 -2.992859,-0.733368 -2.043396,-1.333771c0.726974,-0.459778 0.700684,-0.549316 -0.163635,-0.556946c-1.898453,-0.016602 -1.054932,-1.185577 0.882797,-1.223389c1.882874,-0.036713 1.889816,-0.046906 0.441422,-0.65036c-1.401855,-0.584045 -1.415771,-0.635956 -0.294296,-1.098389c1.145432,-0.472321 1.14621,-0.486511 0.029449,-0.526764c-1.515594,-0.054657 -0.492508,-1.035736 1.441956,-1.382751c0.80928,-0.145172 0.169174,-0.300079 -1.422348,-0.344147c-3.190796,-0.088348 -3.43605,-0.548859 -0.414871,-0.779053c2.871704,-0.218842 2.87822,-1.066711 0.008224,-1.066711c-1.36792,0 -2.31546,-0.171631 -2.105759,-0.381317c0.209686,-0.209717 2.174011,-0.370483 4.365112,-0.357208c3.201981,0.019287 3.633102,-0.076019 2.197098,-0.485718c-1.274292,-0.363556 -1.786682,-0.870819 -1.786682,-1.76889c0,-1.171356 0.227142,-1.238007 3.258026,-0.956085c1.791962,0.166718 2.728378,0.170776 2.080978,0.009064c-1.926544,-0.481171 -2.450668,-1.350525 -0.853409,-1.415466l1.441956,-0.058655l-1.47139,-0.471252c-0.80928,-0.259155 -2.347748,-0.49762 -3.418869,-0.529877c-1.210846,-0.036469 -1.801682,-0.294678 -1.561981,-0.682495c0.234802,-0.379913 1.686539,-0.508545 3.713165,-0.328857l3.327637,0.294983l-3.185532,-0.652679c-4.272842,-0.875458 -10.90242,0.230194 -15.842178,2.641998c-4.579193,2.235809 -9.962494,7.923126 -12.505798,13.212067c-2.078636,4.322662 -3.209068,5.376678 -2.628326,2.450806c0.807304,-4.067444 3.981079,-9.32959 7.757843,-12.862579c5.367706,-5.02124 9.742554,-6.929718 17.411591,-7.595642c7.69989,-0.668625 10.551361,-0.170227 16.903625,2.954407c6.917374,3.402557 12.555695,9.058105 15.822723,15.871002c3.248383,6.774048 3.814438,9.217316 3.872086,16.714325c0.048492,6.297394 -0.009766,6.59967 -2.135208,11.076996c-3.106293,6.543671 -6.628815,11.079987 -10.757065,13.85318c-3.52832,2.370148 -9.658661,4.78363 -12.193848,4.800659c-0.738571,0.004913 -1.740097,0.27356 -2.225662,0.596863c-1.331329,0.886597 3.727905,0.059326 7.945435,-1.299103c1.942215,-0.625641 4.8069,-1.917389 6.366028,-2.870636c3.47522,-2.124725 4.603363,-2.227631 2.745911,-0.250488c-2.142868,2.280975 -6.458511,4.840851 -9.553375,5.666687c-1.537582,0.410278 -2.795578,0.913391 -2.795578,1.11795c0,0.20462 0.68895,0.685974 1.531036,1.069641c1.38208,0.6297 1.744278,0.504974 3.722153,-1.281952c1.205109,-1.088715 3.748306,-3.129913 5.651566,-4.53595c1.90332,-1.406006 4.820892,-3.89859 6.483551,-5.539063c1.662674,-1.640411 5.083252,-4.891724 7.601196,-7.225067c4.475449,-4.147217 4.569077,-4.291229 4.1707,-6.414673l-0.407532,-2.172272l-2.402802,4.060455c-2.805176,4.74057 -2.726822,4.631989 -3.085342,4.273529c-0.574219,-0.57428 3.954315,-13.385284 4.853531,-13.730377c1.236832,-0.474579 1.544739,-0.032745 2.95813,4.24411c1.840637,5.569702 7.080551,11.059509 20.863373,21.858551c2.184982,1.711945 3.972702,2.987274 3.972702,2.833984c0,-0.153229 -1.920135,-1.812073 -4.266953,-3.68631c-8.102753,-6.470825 -19.275055,-18.991058 -19.275055,-21.600494c0,-0.461884 -0.41571,-1.673126 -0.923798,-2.691681c-0.590424,-1.183411 -0.760727,-2.331268 -0.471954,-3.180298c0.248505,-0.730652 0.360748,-1.593292 0.249374,-1.916992c-0.111359,-0.32373 -0.145874,-2.508728 -0.076736,-4.85553c0.074554,-2.530975 -0.113281,-4.266998 -0.461761,-4.266998c-0.32309,0 -0.679489,0.595917 -0.791931,1.324219c-0.141037,0.913422 -0.632858,0.046082 -1.585205,-2.795624c-2.102417,-6.273224 -5.053757,-11.504028 -9.071732,-16.078003c-2.001999,-2.279022 -4.100571,-4.758301 -4.663544,-5.509521c-0.87262,-1.164352 -0.965759,-1.192245 -0.631531,-0.188843c0.215652,0.64743 2.156387,3.078308 4.312698,5.401947c5.695618,6.137543 9.067291,13.123016 10.317978,21.377075c0.609573,4.022858 -0.191589,2.557617 -2.708908,-4.954651c-2.406021,-7.179871 -3.024902,-8.274017 -8.206726,-14.509125c-1.78035,-2.142242 -3.690399,-4.664551 -4.244583,-5.605072c-0.554138,-0.940582 -3.016235,-4.594543 -5.471283,-8.119904c-2.455048,-3.52536 -4.383743,-6.835983 -4.28598,-7.356888c0.097824,-0.52092 0.772171,-1.208557 1.498581,-1.528076c0.726471,-0.319565 1.320816,-0.936737 1.320816,-1.37149c0,-0.434738 -2.038223,-2.88649 -4.529373,-5.448334c-2.491135,-2.561829 -6.074265,-6.844345 -7.962463,-9.516724c-1.888199,-2.672379 -5.028854,-7.110077 -6.979263,-9.861526c-3.746536,-5.285431 -8.606232,-12.768646 -10.004349,-15.405457c-0.459183,-0.865982 -3.90506,-6.692627 -7.657455,-12.94812c-9.367935,-15.61676 -11.296448,-19.099411 -19.497017,-35.209869c-10.847267,-21.309982 -25.767105,-58.620636 -25.767105,-64.436928c0,-0.732101 -0.542236,-2.556808 -1.204895,-4.05497c-0.662704,-1.498116 -1.356987,-4.114029 -1.54287,-5.813187l-0.337929,-3.089264l1.262436,1.207329c0.830696,0.794411 1.38623,2.252205 1.624329,4.262489c0.198982,1.680374 0.737389,3.366905 1.196404,3.747841c0.45903,0.380981 0.76078,0.449188 0.670586,0.151627c-0.09021,-0.297615 0.537628,-1.732849 1.39518,-3.189514c0.857491,-1.456703 1.88929,-3.384338 2.292786,-4.283707c0.452812,-1.009277 2.736794,-13.071999 2.990219,-12.66193c0.534416,0.864742 -2.239998,16.65015 -3.357231,18.355259c-0.962288,1.468559 -0.653656,2.121651 1.002548,2.121651c0.597862,0 1.546921,0.232353 2.108963,0.516312c1.943581,0.981895 5.232559,1.837898 7.061707,1.837898c1.009903,0 1.988907,0.247047 2.175522,0.548958c0.186615,0.30191 1.857513,0.846893 3.713165,1.21106c3.137138,0.615616 5.176598,1.364746 9.031097,3.317383c2.68882,1.362053 7.631218,1.63913 10.187401,0.57106c2.913834,-1.217468 3.500732,-0.656288 1.223373,1.169708c-2.58548,2.073044 -1.069473,1.733047 2.190674,-0.491264c2.13681,-1.457901 3.224396,-2.793777 4.57341,-5.617615c0.973419,-2.037712 1.769897,-3.917168 1.769897,-4.17659c0,-0.259422 0.42157,-1.316734 0.936783,-2.349556c0.742203,-1.487709 0.788467,-2.056648 0.222733,-2.73835c-1.143005,-1.377174 -7.79184,-5.952446 -9.371246,-6.448616c-0.793854,-0.24939 -3.329185,-1.446625 -5.634026,-2.660469c-2.30484,-1.213905 -5.098312,-2.397011 -6.207718,-2.629219c-2.363373,-0.494621 -6.240692,-1.649269 -12.143669,-3.616337c-2.332573,-0.777283 -5.43074,-1.576309 -6.884865,-1.775593l-2.220741,-0.362354c-3.175797,-10.676701 0.040512,-14.073154 11.497498,-17.046917c8.292419,-2.152439 50.403259,13.627895 54.934326,13.157803c4.984146,-0.51709 17.720184,-9.466629 16.829575,-16.842972c-0.888702,-7.36087 -34.426025,-23.042156 -53.226685,-27.308167c-1.098137,-0.249176 -6.920891,-2.194976 -5.529182,-2.158338c0.864014,0.022718 7.153099,0.741837 9.149513,1.253333c1.996414,0.511446 3.757614,0.802125 3.913742,0.645996c0.156128,-0.15613 -0.992401,-0.558073 -2.552368,-0.893257c-1.559891,-0.335133 -3.498337,-0.873902 -4.307556,-1.197289c-1.246506,-0.498042 -1.291481,-0.592485 -0.294312,-0.617895c1.732437,-0.044143 10.694351,2.526383 14.737061,4.226992c14.17691,5.963722 26.394409,11.735556 27.034973,12.772003c0.710068,1.148954 -1.220215,0.616499 -3.879944,-1.070242c-2.541855,-1.612013 -11.703064,-5.968016 -12.551453,-5.968016c-0.224075,0 3.851639,2.16848 9.057129,4.818806c5.585785,2.843922 11.204865,6.205807 13.711166,8.203356c2.335632,1.861553 4.384766,3.232307 4.553635,3.046112c0.168808,-0.186199 -0.058212,-0.468132 -0.504562,-0.626591c-0.44635,-0.158405 -2.215775,-1.559692 -3.932022,-3.113953c-1.716293,-1.554258 -3.728836,-3.151522 -4.472336,-3.549429c-1.262131,-0.675442 -1.278122,-0.749237 -0.241455,-1.112936c1.00322,-0.3519 0.945206,-0.505802 -0.601654,-1.595348c-4.550583,-3.205343 -20.757538,-11.190989 -30.84523,-15.198459c-4.488998,-1.783254 -11.530205,-3.262061 -16.666969,-3.50037c-3.006668,-0.139517 -4.359413,-0.069293 -3.049469,0.158304c3.239815,0.562885 1.479073,1.222594 -4.353828,1.631212c-7.28019,0.510048 -13.881935,2.647271 -18.088745,5.855978c-2.330872,1.777821 -3.144592,1.884476 -1.63282,0.213935c2.845161,-3.143865 10.318176,-6.166686 17.307068,-7.000741l4.414116,-0.526815l-4.70842,0.226717c-4.691345,0.225837 -7.065582,0.91701 -14.11895,4.11014c-3.266724,1.47886 -3.441429,1.503441 -2.383972,0.334978c1.760277,-1.945127 9.12471,-5.182297 13.537697,-5.950785c2.46402,-0.429111 7.241379,-0.578099 12.590462,-0.392627c7.599083,0.26346 9.307198,0.520709 14.42408,2.172361c14.307266,4.618119 28.979477,12.686875 36.352249,19.991389c4.464584,4.423279 6.689362,6.00745 7.824905,5.571663c3.235153,-1.241432 39.952957,32.9706 59.878006,55.791676c21.712021,24.867744 39.916183,49.445206 49.580002,66.938019c2.832092,5.126602 3.453094,8.024658 0.828552,3.867172c-0.817719,-1.295364 -2.609955,-3.369965 -3.982788,-4.610214c-1.372772,-1.240234 -3.260254,-3.707886 -4.194397,-5.483673c-0.934082,-1.775757 -2.860199,-4.599854 -4.280182,-6.275726c-1.420013,-1.675873 -3.053009,-3.973999 -3.628876,-5.106949c-0.575928,-1.132965 -2.539215,-4.046295 -4.362885,-6.47403c-1.8237,-2.427795 -3.763733,-5.076263 -4.311127,-5.885536c-0.547424,-0.809265 -2.186768,-2.928017 -3.642944,-4.70842c-1.456207,-1.780357 -3.189514,-4.230202 -3.851837,-5.444054c-0.662323,-1.213898 -1.403473,-2.207077 -1.646973,-2.207077c-0.24353,0 -0.909088,-0.860764 -1.47905,-1.912781c-0.569992,-1.052032 -2.153061,-3.116333 -3.518021,-4.587387c-1.364914,-1.470985 -4.059692,-4.64917 -5.988312,-7.062584c-1.928665,-2.413414 -4.974411,-5.993011 -6.768387,-7.95459c-1.7939,-1.961639 -5.115585,-5.781258 -7.381516,-8.488037c-5.335724,-6.373894 -21.872391,-22.957802 -29.647888,-29.732498c-9.232407,-8.044125 -12.663696,-10.888203 -13.136276,-10.888203c-0.236374,0 -2.067978,-1.461678 -4.070175,-3.248241c-2.002274,-1.786564 -3.753281,-3.135376 -3.891235,-2.997463c-0.13797,0.137966 0.152084,1.02998 0.644547,1.982285c0.787796,1.523365 0.794113,2.067982 0.052734,4.531433c-1.224625,4.069054 -2.926163,6.505703 -5.737946,8.216972c-1.36412,0.830223 -3.432831,2.372684 -4.597092,3.427711l-2.98703,3.223557c36.22226,28.60088 82.853882,87.10265 97.571777,112.343616c15.694733,-4.768295 29.301483,-2.506973 45.284454,8.271317c-5.441925,-6.694916 -11.266846,-12.612122 -16.077454,-19.847839c-1.865601,-2.101685 -4.818512,-6.064178 -6.561951,-8.805527c-13.063232,-20.539993 -24.337158,-35.753502 -41.111511,-55.477654c-14.111038,-16.592453 -33.138214,-36.137135 -47.516693,-48.809055c-7.248199,-6.387917 -16.675827,-13.993561 -17.345779,-13.993561c-0.241608,0 -1.652832,-1.068171 -3.136047,-2.373774c-6.431915,-5.661604 -26.406784,-17.738089 -34.841873,-21.064889c-1.61853,-0.638336 -4.664291,-1.845301 -6.768341,-2.682099c-9.716522,-3.864483 -25.127159,-5.098979 -34.312782,-2.748701c-10.573868,2.70549 -18.611267,9.121403 -23.631584,18.864118c-2.018349,3.917007 -3.756065,6.384295 -5.803139,8.239737c-4.136795,3.749445 -4.525902,3.9167 -4.516487,1.942024c0.005592,-1.175501 0.942787,-2.659897 3.269829,-5.179089c1.794121,-1.942177 3.628609,-3.935638 4.076653,-4.429903c0.707222,-0.780132 2.062447,-3.695469 2.062447,-4.436632c0,-0.937399 -1.956352,0.049627 -3.06163,1.544634c-1.529678,2.068966 -6.266312,5.386347 -7.023048,4.918684c-0.832291,-0.514395 -0.578407,-2.010902 0.341194,-2.010902c0.467766,0 1.965561,-1.189785 3.32856,-2.643908c1.36293,-1.454176 3.827324,-3.414362 5.476494,-4.355953c1.649117,-0.941644 4.852333,-3.207568 7.118217,-5.03543c5.317619,-4.289558 8.898773,-6.324317 14.71376,-8.360058c4.460587,-1.561556 5.250511,-1.648703 15.008072,-1.656104c12.261131,-0.009263 16.848648,0.92322 28.923019,5.879007c10.969498,4.502251 26.900375,13.899637 36.903397,21.76869c17.951614,14.122007 21.616486,17.2815 34.128769,29.422518c14.244385,13.821701 32.674225,34.075249 43.853149,48.192604c12.942352,16.344193 20.337769,26.725304 31.217163,43.820183c0.893677,1.40419 3.421082,4.490356 5.616425,6.858078c5.751923,7.12793 10.346924,14.329208 17.347992,20.220413c7.045929,5.638901 14.313385,12.912888 17.14267,17.158142c0.970825,1.45665 2.661285,4.634827 3.756683,7.062592c2.53772,5.624344 2.616577,5.715363 5.223816,6.028656c16.21106,1.947769 32.497009,9.523178 44.85733,20.865448c6.055786,5.556976 8.761505,8.676361 11.896698,13.715866c1.309052,2.10405 3.139862,4.996567 4.068481,6.427811c0.928619,1.431274 1.688416,2.953384 1.688416,3.382599c0,0.429199 0.764648,2.43634 1.699219,4.460388c0.934601,2.024002 1.882202,4.474503 2.105804,5.445663c0.223572,0.971069 0.753632,2.162872 1.177826,2.648438c1.077393,1.233246 3.710724,8.793182 5.020508,14.413208c3.57605,15.343994 2.578735,33.074066 -2.72467,48.439423c-2.703766,7.833435 -8.704468,18.324646 -13.54715,23.685028l-1.981354,2.193054l2.212128,2.69162c1.216644,1.480438 4.029663,6.292969 6.251099,10.69455l4.039063,8.002869c-0.003845,3.628937 0.683197,6.88031 -1.655701,10.629791c-2.366577,3.793854 -7.36084,6.851288 -10.348877,8.024963c-1.545685,0.607239 -3.132874,0.73233 -5.514954,0.434692c-2.898346,-0.362122 -3.669434,-0.749664 -5.779785,-2.90509c-1.339386,-1.367981 -4.658173,-6.443481 -7.375061,-11.278961c-2.716919,-4.83551 -5.003296,-8.871094 -5.080841,-8.968018c-0.077545,-0.096924 -1.049469,0.432739 -2.15979,1.177124c-1.110382,0.744324 -3.931274,2.269562 -6.268524,3.389343c-3.249237,1.556702 -4.334869,2.388 -4.611511,3.531281c-1.078674,4.457306 -6.737701,16.800598 -10.264557,22.388794c-1.327911,2.104126 -3.055664,5.149872 -3.839386,6.768341c-2.522278,5.208405 -5.677429,9.291107 -8.403351,10.873383c-1.431976,0.831238 -2.70517,1.815826 -2.829193,2.18808c-0.124115,0.372223 1.813934,2.352875 4.306732,4.40152c7.778717,6.392853 16.210907,14.249451 17.073364,15.90802c1.049713,2.018799 1.069397,8.167236 0.034058,10.642059c-0.815796,1.950104 -5.225922,6.030273 -9.686096,8.961487c-2.145966,1.410339 -3.225128,1.687439 -7.062592,1.813293c-2.491302,0.081787 -5.191742,0.010498 -6.000977,-0.158325zm8.339722,-2.56073c1.187958,-0.329956 2.75174,-1.079163 3.474976,-1.664795l1.315094,-1.06488l-2.222229,-1.716095c-1.222198,-0.943848 -4.483704,-3.539093 -7.24765,-5.767273c-2.763977,-2.228119 -6.078705,-4.769318 -7.365997,-5.647064l-2.340607,-1.596008l-4.333527,2.64801c-2.383453,1.456421 -4.333557,2.815338 -4.333557,3.019989c0,0.680847 12.821533,10.632141 14.813446,11.497192c2.329193,1.011597 5.271423,1.115448 8.240051,0.290924zm9.766571,-7.662476c3.78006,-3.723572 3.354492,-7.641998 -1.212402,-11.163422c-8.30191,-6.401306 -11.55542,-9.18692 -17.359375,-14.862671c-3.466614,-3.390076 -8.686523,-8.290436 -11.599823,-10.889771c-6.826202,-6.090546 -13.565338,-12.954865 -13.138031,-13.382202c0.183655,-0.183655 1.625732,0.638672 3.204681,1.827332l2.870758,2.161194l-1.765656,-1.947205l-1.765656,-1.947296l2.354218,1.293945c2.288177,1.25766 2.313538,1.259155 0.904846,0.054718c-0.79718,-0.681549 -2.651123,-1.931458 -4.119873,-2.777557c-3.18631,-1.835541 -10.401825,-7.508331 -14.294403,-11.238129c-1.537567,-1.473358 -2.795563,-2.381866 -2.795563,-2.018982c0,0.767944 -7.315216,6.652802 -8.269806,6.652802c-0.354126,0 -0.10791,-0.681427 0.547241,-1.514282l1.191132,-1.514313l-2.766968,-2.47757c-1.52182,-1.362732 -4.753296,-4.42923 -7.18103,-6.814453c-2.427734,-2.385254 -4.943848,-4.78067 -5.591217,-5.32312c-0.6474,-0.54248 -2.679779,-2.375671 -4.516418,-4.073792l-3.339294,-3.087463l-1.663391,1.024414c-1.549133,0.954041 -1.529236,0.896088 0.289886,-0.843658c2.158722,-2.064575 2.465912,-4.659912 0.512238,-4.327789c-1.168793,0.198669 -1.152985,0.162354 2.191254,-5.032745c1.188232,-1.845825 2.700165,-2.570099 2.700165,-1.293488c0,0.342804 0.273376,0.454315 0.607513,0.247742c0.334167,-0.206512 2.960876,2.095276 5.837158,5.115112c2.876251,3.019806 6.471588,6.417542 7.989624,7.550537c6.900146,5.149811 10.873352,9.77774 10.873352,12.66507c0,0.517578 0.227966,0.80011 0.506653,0.627869c0.278625,-0.172119 5.112061,3.518311 10.740997,8.201111c10.068329,8.376068 21.356873,16.561462 26.272461,19.050415c1.375702,0.696533 2.501312,1.50119 2.501312,1.788025c0,0.889374 -2.483978,-0.050964 -6.474091,-2.450928c-4.389465,-2.640259 -4.253998,-2.45224 1.742432,2.417603c3.782318,3.071655 4.516479,3.456116 5.296997,2.773621c0.498291,-0.43576 1.568176,-0.986511 2.377441,-1.223846c3.069885,-0.90033 5.7164,-5.517487 9.846985,-12.489532c4.169891,-7.0383 5.479492,-9.558075 8.052094,-14.880066l0.39505,-1.471313l-0.93631,1.471313c-1.032806,1.623138 -1.046753,2.254181 0.188568,-8.533966c0.222382,-1.942169 0.390472,-9.622742 0.373505,-17.067932c-0.028137,-12.344208 -0.150818,-13.951447 -1.392242,-18.245087c-1.950562,-6.746185 -2.055573,-7.254791 -1.27533,-6.179779c1.822815,2.511536 3.863129,12.293335 4.392731,20.976776c0.302277,4.956146 0.567596,9.364288 0.417816,11.862457c-0.187988,3.13562 -0.200531,6.902649 -0.540588,8.359314c-0.952942,4.082153 -1.321228,7.521729 -0.687775,6.423065c0.532837,-0.923889 1.398499,-4.046082 2.316101,-8.352722c0.614532,-2.884338 2.178802,-4.619965 3.798218,-4.214355c0.682922,0.171021 1.771332,-0.08963 2.418732,-0.579315c1.158386,-0.876282 1.15506,-0.890686 -0.208954,-0.909119c-1.289337,-0.017395 -1.362549,-0.193237 -1.048248,-2.520081c0.816803,-6.04837 1.075043,-18.010284 0.467133,-21.629211c-1.484192,-8.834564 -6.094086,-25.295532 -7.641785,-27.287109c-0.28595,-0.36795 -0.829285,-1.586975 -1.20752,-2.708954c-0.653442,-1.938293 -1.492126,-3.353607 -8.552399,-14.432312c-3.287537,-5.15863 -13.376953,-15.696747 -20.063965,-20.956268c-6.093262,-4.79245 -11.116119,-8.184143 -12.120331,-8.184143c-0.48764,0 -1.138245,-0.24173 -1.445801,-0.537231c-0.307495,-0.295471 -3.339996,-1.779572 -6.738892,-3.297974c-3.398865,-1.518463 -7.239136,-3.292603 -8.533966,-3.942596c-1.2948,-0.649994 -3.281158,-1.393188 -4.414124,-1.651459c-1.132996,-0.25824 -3.913879,-0.89389 -6.179779,-1.412537c-7.147522,-1.635864 -16.318176,-2.640442 -24.892853,-2.726868c-5.114456,1.785034 -13.76799,1.404968 -14.392899,1.503723c-28.870682,4.561859 -41.73053,15.791595 -43.953461,17.338013c-1.695847,1.179718 -2.229233,3.594269 -1.22525,3.288177c1.763809,-0.53772 15.27739,-7.520721 18.108231,-8.893463c2.830826,-1.372742 6.736084,-2.911438 8.678268,-3.419342c1.942215,-0.507935 4.16861,-1.105133 4.947601,-1.327148c2.370514,-0.675659 0.883621,0.793701 -1.571655,1.553009c-1.209335,0.374054 -4.71489,1.826172 -7.79007,3.226929c-3.07515,1.400787 -6.563095,2.970306 -7.750977,3.487885c-1.187851,0.517578 -2.247238,1.159241 -2.354202,1.425903c-0.106918,0.266602 -1.651077,1.184906 -3.431488,2.040649c-4.20459,2.020935 -7.078308,3.701721 -8.134125,4.757599c-0.006866,9.03714 1.19191,13.055511 4.89711,17.42569c5.746735,6.778107 12.429871,12.727936 19.127884,18.798401c9.267807,7.980957 30.058258,27.658417 31.422134,29.73996c0.807343,1.232117 0.877213,1.747559 0.326904,2.410645c-0.385025,0.463928 -1.064484,0.843475 -1.509964,0.843475c-0.445465,0 -4.319519,-3.076935 -8.609024,-6.837585c-4.289505,-3.760651 -9.363281,-8.196869 -11.275024,-9.858215c-1.911697,-1.661346 -5.089874,-4.509827 -7.062576,-6.329926c-5.804962,-5.355927 -8.556305,-7.613464 -15.077789,-12.371613c-3.390961,-2.474182 -7.971832,-6.513092 -10.179642,-8.975403c-2.207748,-2.462341 -4.204941,-4.476959 -4.438171,-4.476959c-0.499237,0 -19.470154,16.34906 -24.315628,20.955109c-1.83728,1.74649 -3.558731,3.175476 -3.825562,3.175507c-1.024811,0.000153 -1.145752,25.206085 -0.156693,32.66449c0.690384,5.206207 6.079315,22.21582 7.380463,23.295685c1.016846,0.843903 1.068649,0.054749 0.26207,-3.991699c-0.713211,-3.578064 -1.052856,-13.12439 -0.466934,-13.124329c0.242813,0.000092 0.442154,1.125732 0.443085,2.501495c0.002365,3.579712 1.132706,12.731323 1.871902,15.155121c14.328278,43.651917 55.178116,67.462097 99.651337,62.420135c10.829681,-1.610657 25.224213,-6.03186 22.65921,-6.959717c-0.485565,-0.175629 -1.94223,-1.172241 -3.23703,-2.21463c-1.29483,-1.042419 -3.214966,-2.332367 -4.266968,-2.866577c-1.882874,-0.956024 -2.407715,-1.52948 -1.39978,-1.52948c0.282196,0 2.496155,1.294495 4.919861,2.87677c2.423767,1.582245 5.039978,3.047363 5.813904,3.255737c0.96286,0.259308 0.756775,0.006805 -0.652893,-0.80011c-2.7995,-1.602417 -6.357788,-4.708496 -5.416351,-4.728088c0.419861,-0.008698 2.693695,1.043579 5.052856,2.338409c2.359253,1.2948 4.901764,2.354187 5.650085,2.354187c0.748291,0 2.49176,0.926941 3.87442,2.059906c1.382599,1.132965 2.692963,2.059967 2.911835,2.059967c0.774017,0 8.561493,-5.485168 8.398071,-5.915192c-0.091278,-0.240021 -4.887817,-4.565521 -10.659119,-9.612274c-5.77124,-5.046722 -10.935791,-9.669098 -11.476715,-10.271881c-0.540955,-0.602722 -4.268372,-3.983093 -8.283112,-7.511871c-11.094391,-9.751373 -13.066376,-11.41864 -13.505676,-11.41864c-0.22226,0 -1.667999,1.044373 -3.212646,2.320831c-2.614594,2.160583 -2.727783,2.364014 -1.63913,2.946655c0.643158,0.344208 2.434052,2.279388 3.979797,4.300354c3.892151,5.088928 9.551697,11.005859 18.569427,19.413971c4.224274,3.938629 7.371429,7.264191 6.993774,7.390106c-0.377655,0.125854 -1.406525,-0.211121 -2.286316,-0.748993c-1.234039,-0.754333 -1.128754,-0.558685 0.460266,0.855896l2.059906,1.83371l-4.381348,-2.15332c-5.68161,-2.792297 -10.697052,-6.341522 -21.41272,-15.152924c-11.354279,-9.336456 -13.297333,-10.875031 -11.873169,-9.401428c1.934723,2.00174 16.661346,14.113037 22.544495,18.540741c3.012115,2.266907 5.336609,4.261597 5.165619,4.432556c-0.170959,0.17099 -0.913879,-0.128113 -1.650909,-0.664673c-0.73703,-0.53656 -3.194,-2.230591 -5.4599,-3.764404c-9.5867,-6.489502 -22.846161,-17.517578 -23.377014,-19.442993c-0.451569,-1.637909 0.216095,-2.441345 2.042053,-2.457336c0.566498,-0.004974 1.029968,-0.2211 1.029968,-0.480194c0,-0.259155 1.191803,-1.224548 2.648468,-2.145294c1.456665,-0.920746 2.648468,-1.979187 2.648468,-2.352142c0,-1.113678 4.282349,-4.949463 6.317841,-5.659088c1.845093,-0.643158 2.026215,-0.544312 7.243683,3.954102c2.943207,2.537476 7.0495,6.070282 9.125214,7.850708c2.075653,1.780365 6.910492,6.15036 10.744171,9.71106c10.375,9.636383 14.101196,12.808777 16.717682,14.232727c2.435211,1.325378 3.998047,3.53537 3.998047,5.653625c0,1.179352 0.040009,1.174774 1.469086,-0.167755c1.666046,-1.565155 2.764465,-1.1651 1.286133,0.468414c-0.907928,1.003296 -0.803406,1.203613 1.7677,3.387787c2.886597,2.452118 6.223297,4.903198 11.073669,8.134399c1.61853,1.078217 3.439575,2.520264 4.046814,3.204559c1.277191,1.439362 2.017273,1.186035 4.936981,-1.689911zm-95.663467,-47.68924c-3.471222,-3.311127 -7.767929,-7.445618 -9.54834,-9.187805c-1.780334,-1.742188 -3.899094,-3.669098 -4.708359,-4.282043c-1.112015,-0.842224 -1.306381,-1.28244 -0.795853,-1.802338c0.512894,-0.522186 1.000061,-0.248871 2.023453,1.135345c0.741379,1.002777 1.629211,1.819397 1.972977,1.814758c0.343719,-0.004578 2.918701,2.312805 5.722107,5.149811c5.304108,5.367706 6.702606,6.646454 10.118423,9.251801c2.23114,1.701782 3.008575,3.024963 2.105347,3.58316c-0.318176,0.196625 -3.418579,-2.351563 -6.889755,-5.662689zm-9.009918,-5.986755c-1.429077,-1.375702 -4.054993,-3.732025 -5.835342,-5.236176c-1.780334,-1.504242 -3.062912,-2.914307 -2.850067,-3.133606c0.431183,-0.444122 5.403427,3.901031 9.29425,8.12207c3.162903,3.431396 2.836258,3.564301 -0.608841,0.247711zm-8.778091,-9.823761c0,-0.30481 1.655319,-1.81189 3.678421,-3.349121c2.023193,-1.537201 5.333115,-4.323914 7.355499,-6.192749c3.834152,-3.542938 6.034058,-5.043671 6.034058,-4.116302c0,0.298553 -2.661667,2.570587 -5.738419,5.257202c-4.180038,3.650085 -6.678528,5.681427 -7.766586,6.834747c-1.927734,2.043335 -3.562973,2.742615 -3.562973,1.566223zm-1.961853,-2.192444c-1.578629,-1.578674 0.919601,-4.266144 10.495834,-11.290802c3.560715,-2.612 7.872833,-5.838379 9.582504,-7.169739c4.835419,-3.765503 4.857147,-2.445831 0.026489,1.607849c-11.048767,9.271637 -13.396835,11.203369 -15.954117,13.125214c-1.507584,1.132965 -2.749207,2.265045 -2.759201,2.515808c-0.010056,0.250702 2.696487,-1.753754 6.014435,-4.454346c7.769226,-6.323639 16.381409,-13.003204 17.509338,-13.580109c1.410919,-0.721588 -11.610565,10.96817 -19.064484,17.114716c-2.79248,2.302734 -4.908585,3.073608 -5.8508,2.131409zm-4.452103,-1.717957c-1.551666,-1.102539 -1.745895,-1.420959 -0.866653,-1.420959c1.298416,0 3.749283,1.56073 3.749283,2.387512c0,0.830322 -0.669952,0.605652 -2.882629,-0.966553zm-5.062744,-4.282379c-13.854462,-5.999481 -34.461258,-16.66748 -39.583542,-20.492096c-1.053925,-0.786926 -2.168732,-1.274719 -2.477371,-1.083984c-0.30864,0.190704 -1.101593,0.072968 -1.762192,-0.261688c-3.136612,-1.589142 -3.559311,-1.785583 -3.841553,-1.785583c-0.166214,0 -0.346725,0.993164 -0.401169,2.207001l-0.098953,2.207092l-0.229034,-2.176331c-0.145218,-1.380157 0.13176,-2.726898 0.757156,-3.681396c0.840927,-1.283417 0.867538,-1.647858 0.180862,-2.475281c-0.708511,-0.853668 -0.921036,-0.482147 -1.769592,3.092834l-0.964371,4.06311l-0.062393,-2.94278c-0.080688,-3.806061 0.966064,-7.734344 1.830643,-6.869843c0.981766,0.981781 2.422333,-1.295593 5.112442,-8.082092c1.322632,-3.336639 2.40477,-6.170898 2.40477,-6.298401c0,-0.127441 -0.367783,-0.23175 -0.817291,-0.23175c-0.463516,0 -0.979828,0.866119 -1.192673,2.000671c-0.508713,2.711517 -2.01889,5.668732 -3.712097,7.268982c-2.347015,2.21814 -2.740158,1.337006 -0.61116,-1.369598c1.947006,-2.475159 3.583725,-7.414673 2.65126,-8.00116c-0.402679,-0.253326 -1.164261,-0.326324 -1.692444,-0.162201c-0.528152,0.164124 -1.104446,-0.077393 -1.280701,-0.536652c-0.176208,-0.45929 -1.531799,-1.297729 -3.012421,-1.863159c-1.480621,-0.565491 -2.692032,-1.280243 -2.692032,-1.588409c4.841629,-0.505646 9.337814,1.90506 13.830963,3.652344c8.5784,3.32666 11.612503,5.244812 20.010681,12.650848c19.864502,17.517639 23.378586,20.304993 28.070251,22.265289l2.108093,0.880829l2.515396,-2.562958c2.976303,-3.032623 3.382019,-2.263184 -5.155121,-9.77597c-3.435318,-3.023163 -9.815781,-8.742706 -14.178879,-12.710175c-4.363083,-3.967468 -9.418747,-8.072601 -11.234863,-9.122528l-3.301971,-1.908966l2.354218,-0.294312c1.901077,-0.23764 2.354202,-0.530792 2.354202,-1.523376c0,-0.675995 -0.298996,-1.602936 -0.664474,-2.059906c-1.100555,-1.376068 -3.161087,-5.725189 -3.161087,-6.672028c0,-0.486908 -0.66214,-2.07132 -1.471405,-3.520844c-1.583511,-2.836334 -1.818665,-3.880341 -0.874176,-3.880341c0.924484,0 2.929474,3.648743 2.9319,5.335602c0.00119,0.830536 1.072998,3.61142 2.381744,6.179779c1.308762,2.56839 2.260498,5.133209 2.115021,5.699738c-0.145477,0.566467 -0.076691,1.029938 0.152878,1.029938c0.419022,0 10.43512,8.434326 11.53772,9.715637c0.323685,0.37619 3.766678,3.442291 7.651123,6.813629c7.400925,6.423309 14.41951,13.31842 14.41951,14.165863c0,0.273926 -0.256561,0.498077 -0.570114,0.498077c-0.313507,0 -0.427765,0.370728 -0.253891,0.823914c0.486496,1.267761 -4.406357,5.523621 -6.827164,5.938477c-2.498337,0.42804 -6.241425,-0.799438 -9.279037,-3.04303c-2.161957,-1.596832 -11.231766,-9.368622 -24.755508,-21.212585c-7.987091,-6.995087 -17.169342,-12.403137 -17.169342,-10.112152c0,1.580292 -4.268814,9.430756 -5.603699,10.30545c-1.617508,1.059784 -1.22995,2.205872 0.983459,2.908386c0.637405,0.202332 3.195755,1.836853 5.685181,3.632385c2.489456,1.795441 5.453278,3.655304 6.586243,4.132904c2.84697,1.200195 14.505875,6.559875 20.893494,9.604889c2.913376,1.388794 8.844498,4.13385 13.180313,6.100159c8.203979,3.720398 9.663589,4.860413 8.533737,6.664886c-1.109955,1.772644 -3.792786,1.381042 -10.53154,-1.53714zm5.591217,-0.669891c-1.132965,-0.62027 -2.324768,-1.127777 -2.648529,-1.127777c-0.323685,0 0.33847,0.507507 1.47142,1.127777c1.132965,0.620239 2.324768,1.127716 2.648468,1.127716c0.323685,0 -0.338409,-0.507477 -1.471359,-1.127716zm-7.356888,-3.111847c-8.168182,-3.645264 -35.358292,-17.409973 -37.340164,-18.903046c-1.114899,-0.839935 -2.446472,-1.52713 -2.958954,-1.52713c-0.512482,0 -1.55571,-0.437012 -2.318344,-0.971161c-0.987915,-0.691986 -1.3116,-0.746338 -1.125885,-0.189209c0.323181,0.969635 2.532455,2.14151 5.024933,2.665436c0.392929,0.082642 1.452316,0.672729 2.354202,1.311432c3.524582,2.496094 38.40918,19.522583 39.895477,19.472229c0.323746,-0.010986 -1.26535,-0.84729 -3.531265,-1.858551zm122.156342,-45.814178c-8.97879,-17.568176 -22.391693,-30.935211 -39.902252,-39.765625c-2.344543,-1.182343 -4.174042,-2.238434 -4.065582,-2.346893c0.360291,-0.360291 7.893677,3.282959 12.887665,6.232666c13.00119,7.679169 23.835205,19.20285 30.455017,32.393799c1.887695,3.761597 3.674377,8.270782 3.277039,8.270782c-0.113586,0 -1.306946,-2.153107 -2.651886,-4.784729zm-144.038101,-16.255951c-0.199448,-0.566467 -0.720825,-1.923035 -1.158646,-3.014587c-1.015274,-2.531769 -1.000107,-2.743073 0.129959,-1.805267c0.842789,0.699493 3.194016,4.771759 3.194016,5.532074c0,0.807983 -1.843552,0.201569 -2.165329,-0.712219zm14.524887,-23.968292c0,-0.354065 3.314423,-2.081635 3.943451,-2.055481c0.814026,0.033875 -2.266495,2.334625 -3.125854,2.334625c-0.449661,0 -0.817596,-0.125641 -0.817596,-0.279144zm5.451294,-2.841156c0.12767,-0.387909 0.837708,-0.793884 1.577896,-0.902222c0.740234,-0.108307 2.176147,-0.703217 3.190964,-1.321991c1.014816,-0.618835 2.276169,-1.12616 2.802979,-1.12735c0.526871,-0.00116 1.294952,-0.408295 1.706879,-0.904633c0.411926,-0.496338 1.040222,-0.799164 1.396317,-0.673065c0.356033,0.12616 1.309433,-0.031311 2.118698,-0.349915c3.95018,-1.55542 20.555832,-4.248627 19.373138,-3.14212c-0.134872,0.126221 -1.36145,0.381989 -2.725693,0.568329c-6.215363,0.928589 -12.281815,2.766907 -18.285858,4.499176c-0.726715,0 -3.586227,0.9133 -6.354431,2.029541c-2.781525,1.121582 -4.929184,1.713959 -4.800888,1.324249zm98.716064,155.852997c2.269257,-1.454529 4.125854,-2.794403 4.125854,-2.977509c0,-0.37735 -0.114746,-0.314117 -5.14978,2.836975c-3.35376,2.098907 -4.189056,2.785156 -3.390198,2.785156c0.158569,0 2.144897,-1.190125 4.414124,-2.644623zm-21.230804,-9.365997c-0.134888,-0.131744 -1.83432,-1.471191 -3.77655,-2.976593c-3.742004,-2.900391 -13.573395,-12.335632 -17.872284,-17.15213c-7.382721,-8.271606 -7.046448,-8.004272 -8.624451,-6.856659c-0.782349,0.569 -1.414307,1.166931 -1.40448,1.328796c0.009888,0.161804 2.431152,2.280609 5.380585,4.708374c2.949493,2.427795 8.031464,6.680054 11.293213,9.449493c6.54657,5.558502 14.399841,11.738342 14.916992,11.738342c0.182678,0 0.221832,-0.10788 0.086975,-0.239624zm31.50705,-13.747284c-3.063629,-2.466949 -3.514832,-2.744049 -1.902405,-1.168304c0.910828,0.890198 1.837341,1.61853 2.058807,1.61853c0.221497,0 0.151123,-0.202576 -0.156403,-0.450226zm-4.973267,-3.861298c0,-0.105438 -0.728302,-0.83374 -1.618469,-1.61853l-1.61853,-1.426819l1.426788,1.6185c1.333588,1.512756 1.810211,1.888397 1.810211,1.426849zm-4.708374,-4.119904c0,-0.105408 -0.728333,-0.83374 -1.61853,-1.618469l-1.61853,-1.426849l1.426849,1.61853c1.333618,1.512726 1.810211,1.888428 1.810211,1.426788zm-4.119843,-3.523712c0,-0.101318 -0.860779,-0.962067 -1.912811,-1.912811l-1.912781,-1.728668l1.728607,1.912781c1.611328,1.78302 2.096985,2.18335 2.096985,1.728699zm3.531311,-0.038086c0,-0.122223 -0.463531,-0.585693 -1.029999,-1.029968c-0.933472,-0.732117 -0.954315,-0.711273 -0.222198,0.222229c0.768829,0.980316 1.252197,1.292145 1.252197,0.807739zm-4.119873,-2.942749c0,-0.122223 -0.463501,-0.585724 -1.029968,-1.029968c-0.933502,-0.732086 -0.954285,-0.711273 -0.222229,0.222198c0.76886,0.980438 1.252197,1.292145 1.252197,0.80777zm80.042877,-17.365997c0.260742,-0.200714 1.570435,-0.674042 3.531281,-2.175995c5.421875,-4.153015 4.019043,-7.782288 3.526306,-9.957581c-0.48645,-2.147827 -1.356689,-2.972229 -3.017548,-5.885529c-1.660889,-2.9133 -3.67218,-6.606628 -4.469513,-8.207306c-0.797302,-1.600647 -2.086304,-3.847137 -2.864319,-4.992157c-2.125458,-3.127838 -1.83667,-4.677368 1.724487,-9.252441c5.738037,-7.371674 12.265137,-19.085693 13.092712,-23.49707c0.208191,-1.109833 0.584961,-2.017883 0.837219,-2.017883c0.252197,0 0.595062,-0.860779 0.76181,-1.912781c0.166718,-1.052032 0.857178,-3.878937 1.534393,-6.281921c3.365845,-11.943817 2.641479,-30.974365 -1.674988,-44.003082c-2.44104,-7.367981 -3.614624,-10.473541 -4.166626,-11.025452c-0.756409,-0.7565 -0.769684,1.140137 -0.017731,2.545166c2.025482,3.784637 4.475067,24.369385 3.823853,32.133392c-0.81015,9.658966 -3.508118,21.070831 -7.240601,30.625488c-2.346375,6.00647 -6.722778,14.429321 -9.161865,17.632751c-0.74057,0.972748 -1.517029,2.308167 -1.725433,2.967743c-0.208435,0.659546 -1.747681,2.513489 -3.420502,4.119873c-1.882263,1.807526 -2.548859,2.247711 -1.748779,1.154999c3.091492,-4.222534 6.305145,-8.757721 6.830444,-9.639343c0.312775,-0.525055 1.380066,-2.278839 2.371643,-3.897339c1.794983,-2.92981 3.239349,-5.883453 3.239349,-6.624176c0,-0.213959 -1.345032,1.956757 -2.988983,4.823792c-7.828979,13.6539 -18.927063,25.388916 -28.623444,30.266205c-2.010986,1.011536 -3.934631,2.359131 -4.27475,2.994812c-1.585419,2.96228 13.57547,-7.577057 19.20816,-13.352936c3.212585,-3.294281 3.84967,-3.226105 0.98114,0.105011c-2.882599,3.347351 -14.505707,13.029663 -17.465118,14.548859c-1.245239,0.639191 -2.128021,1.298248 -1.961792,1.464447c0.413818,0.413879 7.831268,-4.085754 10.59259,-6.425781c5.312347,-4.50174 8.943451,-7.778259 10.19989,-9.203918c0.95929,-1.08844 1.352356,-1.266571 1.365601,-0.618866c0.016876,0.826355 -5.425507,6.670227 -9.978271,10.714355c-1.002136,0.890228 -1.61261,1.620361 -1.356689,1.622559c0.574188,0.004944 1.679352,1.708038 7.58316,11.68573c2.559265,4.325348 5.524658,8.630432 6.589783,9.566833c1.832581,1.611237 1.828888,0.558319 3.531281,0.824219c1.404694,0.219421 3.154877,0.465729 4.831848,-0.824677zm-5.296997,-39.763367c0,-0.467865 0.711029,-1.196198 1.580078,-1.6185c1.410583,-0.685394 2.783997,-2.814484 6.380157,-9.89035c1.207428,-2.375671 1.595337,-4.119781 0.91626,-4.119781c-0.609589,0 -0.312469,-0.855713 3.396515,-9.783356c3.685852,-8.871918 6.987335,-23.555054 7.224121,-32.128723c0.060028,-2.172821 0.328491,-3.815002 0.596619,-3.649292c0.582123,0.359802 0.579742,0.552551 -0.140961,11.425415c-0.910126,13.731262 -1.035065,14.666443 -2.586517,19.361816c-0.813202,2.460999 -1.779327,5.401428 -2.147034,6.534363c-0.367737,1.132996 -1.823639,4.525696 -3.235474,7.539429c-1.411835,3.013733 -2.566956,5.625214 -2.566956,5.803314c0,0.178192 -1.762817,2.81073 -3.917389,5.850159c-3.644806,5.141785 -5.49942,6.718506 -5.49942,4.675507zm1.196808,-4.003448c-0.010803,-0.242035 0.907227,-1.730286 2.040222,-3.307343c1.132965,-1.576935 2.059967,-3.166656 2.059967,-3.532654c0,-0.365967 0.252014,-0.665405 0.560059,-0.665405c0.859436,0 -0.62326,3.040558 -2.747437,5.634125c-1.041168,1.271179 -1.901947,2.113342 -1.912811,1.871277zm-109.195801,38.401581c-2.248535,-2.26593 -4.220673,-4.119873 -4.382568,-4.119873c-0.161865,0 1.545471,1.853943 3.794037,4.119873c2.248505,2.265869 4.220703,4.119812 4.382538,4.119812c0.161865,0 -1.545471,-1.853943 -3.794006,-4.119812zm-3.825562,-1.471436c-2.737213,-2.751404 -5.109131,-5.002655 -5.270996,-5.002655c-0.161835,0 1.945282,2.251251 4.682434,5.002655c2.737152,2.751526 5.109131,5.002716 5.270935,5.002716c0.161896,0 -1.945221,-2.25119 -4.682373,-5.002716zm8.80722,3.040436c-7.311188,-6.660919 -18.020447,-16.5495 -20.431122,-18.865417c-1.699402,-1.632629 -3.089874,-2.78949 -3.089874,-2.570801c0,0.603882 23.164337,22.214935 23.815247,22.218384c0.312164,0.001648 0.179718,-0.350281 -0.29425,-0.782166zm-12.363129,-8.386292c-1.443146,-1.483551 -4.477814,-4.304779 -6.743744,-6.269409c-2.351318,-2.038635 -1.340759,-0.893158 2.354218,2.668396c6.679565,6.438507 9.006866,8.347748 4.389526,3.601013zm-6.449493,-4.070892c-2.41156,-2.427765 -4.517059,-4.414154 -4.678925,-4.414154c-0.161835,0 1.678802,1.986389 4.090424,4.414154c2.41156,2.427704 4.517059,4.414093 4.678925,4.414093c0.161835,0 -1.678802,-1.986389 -4.090424,-4.414093zm97.803314,-8.475067c2.370605,-1.586121 6.78183,-5.260498 9.802795,-8.165253c2.944427,-2.235931 4.985413,-5.12085 7.294006,-7.869934c3.458954,-4.003326 7.104034,-9.128754 9.039063,-12.966095c1.089783,-2.160858 2.064819,-3.194031 2.594116,-4.307587c0.724854,-1.524994 1.199341,-3.856232 2.535034,-6.147034c2.090454,-5.164703 4.486969,-12.48465 4.778412,-14.595154c0.123474,-0.894257 0.66452,-3.612274 1.202209,-6.040009c1.055756,-4.76651 1.526855,-16.501892 0.888,-22.122375c-0.217499,-1.913757 -0.211823,-3.993103 0.012634,-4.620728c0.649902,-1.817383 1.275391,3.071777 1.463531,11.440796c0.247986,11.029785 -2.913208,27.372528 -7.146973,36.948303c-1.786407,4.040375 -1.780151,5.443054 0.007111,1.601746c2.231476,-4.796173 4.868225,-13.640289 6.316742,-21.187836c2.034729,-10.60199 1.915314,-25.486145 -0.286255,-35.670715c-2.919342,-13.505508 -9.206055,-25.31427 -19.684174,-36.974274c-4.007965,-4.460037 -4.143158,-5.303772 -0.367798,-2.295166c2.149872,1.713242 2.100677,1.614243 -0.601593,-1.211517c-3.866974,-4.043701 -10.142303,-8.181061 -18.833557,-12.417206c-11.972534,-5.835434 -20.948975,-8.092819 -34.212158,-8.603638c-4.460968,-0.171829 -8.278809,-0.416183 -8.4841,-0.543091c-0.52475,-0.324295 -14.079559,1.838181 -15.864532,2.531006c-0.809265,0.314056 -4.186066,1.441025 -7.504028,2.504333c-6.945709,2.138062 -13.069092,5.010376 -18.779846,9.559662c-3.955933,2.436768 -6.50943,5.862305 -9.075928,9.573959c-5.246155,5.125214 -13.607666,16.5345 -17.020874,23.224945c-1.120346,2.196121 -1.131104,2.357315 -0.159454,2.391464c2.138885,0.075134 10.618164,0.536957 15.180573,0.826813c2.597015,0.164978 8.026398,0.962097 12.065308,1.771362c4.038879,0.809204 7.906036,1.474396 8.593689,1.47818c17.468994,5.026367 32.378265,14.464783 45.098114,27.184845c6.041595,6.177185 8.965485,10.677155 12.869232,16.273651c2.537933,3.638397 3.168701,5.301147 4.198975,8.466919c0.359314,1.11441 1.312134,2.860809 1.828033,3.993774c1.212555,2.662842 5.694885,19.093201 5.940765,21.776337c0.10379,1.132965 0.453186,3.384216 0.776367,5.002686c0.323334,1.61853 0.618134,4.664276 0.655304,6.768311c0.037201,2.104095 0.219604,5.149811 0.405365,6.768341c0.185791,1.61853 0.084747,4.055298 -0.224518,5.4151c-0.481079,2.115204 -0.404724,3.118896 0.237274,3.118896c0.084167,0 2.092499,-1.29776 4.463135,-2.88382zm37.49707,-89.959961c-0.344086,-0.890228 -0.768951,-2.545532 -0.944153,-3.678467c-0.616058,-3.984192 -4.454193,-15.029892 -5.893036,-16.959503c-0.800354,-1.073303 -1.313568,-2.092987 -1.140625,-2.265976c1.679657,-1.679642 7.179565,12.107285 8.902039,22.315384c0.437164,2.590607 -0.034302,2.890808 -0.924225,0.588562zm-10.641327,-27.552338c-1.070404,-1.548401 -3.5354,-4.779205 -5.47757,-7.179581c-5.175323,-6.396103 -5.629089,-7.3022 -1.838531,-3.671051c3.532196,3.383682 10.2547,12.673523 9.625977,13.302231c-0.200012,0.200058 -1.239502,-0.903122 -2.309875,-2.451599zm-142.609833,103.328156c-1.594162,-1.6185 -3.030914,-2.942749 -3.192764,-2.942749c-0.161835,0 1.01004,1.324249 2.604263,2.942749c1.594147,1.61853 3.030884,2.942749 3.192749,2.942749c0.161835,0 -1.01004,-1.324219 -2.604248,-2.942749zm-8.239685,-7.651123c-1.264359,-1.294861 -2.431274,-2.354248 -2.593094,-2.354248c-0.16188,0 0.740173,1.059387 2.004532,2.354248c1.264359,1.294769 2.431274,2.354187 2.593079,2.354187c0.16188,0 -0.740158,-1.059418 -2.004517,-2.354187zm-5.002686,-4.291595c0,-0.094482 -1.258041,-1.352509 -2.795593,-2.795654l-2.795624,-2.623871l2.623886,2.795654c2.438919,2.598511 2.967331,3.065765 2.967331,2.623871zm-9.711105,-9.245087c-1.264343,-1.294861 -2.431198,-2.354218 -2.593079,-2.354218c-0.161819,0 0.740189,1.059357 2.004547,2.354218c1.264359,1.2948 2.431274,2.354218 2.593079,2.354218c0.16188,0 -0.740189,-1.059418 -2.004547,-2.354218zm-3.825562,-3.164978c0,-0.122192 -0.46347,-0.585724 -1.029922,-1.029938c-0.933517,-0.732117 -0.95433,-0.711304 -0.22226,0.222229c0.76889,0.980347 1.252182,1.292145 1.252182,0.807709zm-55.506577,-34.943695c-0.147995,-0.566437 -0.26915,-0.102966 -0.26915,1.029999c0,1.132965 0.121155,1.596436 0.26915,1.029999c0.148056,-0.566528 0.148056,-1.493469 0,-2.059998zm1.745987,-0.30545c-0.161194,-0.398499 -0.283279,0.070068 -0.271271,1.041138c0.011963,0.971161 0.143875,1.29718 0.293106,0.724518c0.149216,-0.572632 0.13942,-1.367188 -0.021835,-1.765656zm1.769394,-1.165894c-0.163269,-0.404633 -0.296844,-0.073578 -0.296844,0.735687c0,0.809265 0.133575,1.14032 0.296844,0.735657c0.163269,-0.404633 0.163269,-1.066711 0,-1.471344zm1.731461,-0.870575c-0.195587,-0.195557 -0.334671,0.152039 -0.309113,0.772461c0.028244,0.685638 0.167725,0.825104 0.355576,0.355621c0.169998,-0.424866 0.149078,-0.932526 -0.046463,-1.128082zm11.212921,-0.90625c-0.161209,-0.398499 -0.283325,0.070007 -0.271332,1.041138c0.012009,0.9711 0.143921,1.29715 0.293121,0.724457c0.149246,-0.572601 0.139404,-1.367188 -0.02179,-1.765594zm-18.020142,-1.563354c-1.699402,-3.331146 -1.984818,-3.006958 -0.4263,0.484406c0.707672,1.585419 1.368362,2.664551 1.468262,2.398163c0.099808,-0.266418 -0.369049,-1.563599 -1.041962,-2.882568zm8.607071,1.574524c-0.163269,-0.404633 -0.296829,-0.073578 -0.296829,0.735687c0,0.809265 0.13356,1.14032 0.296829,0.735687c0.163269,-0.404633 0.163269,-1.066742 0,-1.471375zm3.531311,-1.177094c-0.163254,-0.404663 -0.29689,-0.073608 -0.29689,0.735657c0,0.809265 0.133636,1.14032 0.29689,0.735687c0.163284,-0.404572 0.163284,-1.066711 0,-1.471344zm1.731445,-0.870544c-0.195541,-0.195618 -0.334702,0.152039 -0.309143,0.772461c0.028259,0.685608 0.167725,0.825073 0.355576,0.355591c0.170059,-0.424866 0.149155,-0.932495 -0.046432,-1.128052zm1.799881,-0.30658c-0.163315,-0.404633 -0.29689,-0.073517 -0.29689,0.735687c0,0.809265 0.133575,1.14032 0.29689,0.735748c0.163223,-0.404633 0.163223,-1.066803 0,-1.471436zm-12.426849,-1.563812c-1.292801,-2.500092 -1.712189,-2.30603 -0.501816,0.232178c0.538361,1.128937 1.083298,1.94809 1.211014,1.820374c0.127716,-0.127716 -0.191422,-1.051361 -0.709198,-2.052551zm-58.598007,-2.328461c0.026588,-5.842316 4.328522,-17.500427 8.109169,-21.975677c3.298706,-3.904694 5.633606,-5.979721 4.408112,-7.994904l-1.970787,-1.284027c-1.090843,-0.821426 -3.43222,3.771072 -4.3722,4.809891c-4.03656,4.461075 -7.801888,10.49025 -9.393044,15.04039c-0.756226,2.162476 -1.663559,4.027985 -2.016335,4.145569c-1.080338,0.360138 -0.723152,-3.136841 0.72905,-7.137604c1.789261,-4.929352 8.771828,-14.846161 12.651222,-19.418991l-21.448875,-23.648727l-1.730476,-2.162064c-16.439156,-18.838593 -29.246666,-35.515915 -44.44838,-56.422287c-16.683685,-26.888992 -24.176825,-43.925667 -28.334627,-64.422653c-1.67732,-8.269035 -1.810371,-24.160416 -0.250315,-29.908089c0.598902,-2.206566 0.949095,-4.151688 0.778164,-4.322624c-0.557814,-0.557816 -2.063894,2.469147 -5.749012,8.139244c-3.685117,5.670036 -11.639506,12.577164 -12.926891,23.148705c-1.275741,10.475342 -1.393628,14.647575 -0.55181,19.716438c0.403236,2.42775 1.070708,6.532921 1.483362,9.122543c2.514326,15.780235 9.966843,34.871635 21.671555,55.517311c7.209396,12.716354 25.856682,38.85083 33.119999,46.418137c1.648396,1.717422 7.033554,7.823166 13.95993,15.827789c7.215294,8.338638 13.630585,15.204575 22.272263,23.836868c3.856049,3.851868 7.520988,8.218689 9.592026,11.429047c3.520294,5.45694 4.398697,5.764221 4.4179,1.545715zm-90.281662,-185.551483c-1.718721,-7.991081 -2.202326,-17.094788 -1.016577,-19.135185c0.607855,-1.045868 0.638802,-1.042297 0.731642,0.084976c0.053301,0.647438 0.040417,2.268402 -0.028671,3.602158c-0.069086,1.333755 0.180143,5.529335 0.553829,9.323441c0.373686,3.794098 0.539961,7.037842 0.369497,7.208359c-0.170517,0.170464 -0.444845,-0.31723 -0.60972,-1.083748zm141.788803,184.882538c-1.264313,-1.294861 -2.431229,-2.354218 -2.593094,-2.354218c-0.161819,0 0.740234,1.059357 2.004532,2.354218c1.264359,1.294769 2.431259,2.354187 2.593094,2.354187c0.16188,0 -0.740189,-1.059418 -2.004532,-2.354187zm18.022659,0.191254c-0.693817,-1.193115 -0.861374,-0.811218 -0.293427,0.668823c0.201828,0.52597 0.490952,0.832336 0.642471,0.680817c0.151535,-0.151581 -0.005524,-0.75885 -0.349045,-1.34964zm-4.118698,-0.348236c-0.581253,-0.576965 -0.648819,-0.509338 -0.329468,0.329498c0.221024,0.580414 0.55014,0.907074 0.731323,0.725861c0.181229,-0.181183 0.000412,-0.656097 -0.401855,-1.055359zm-10.666901,0.56665c0,-0.098297 -0.993195,-1.091492 -2.207092,-2.207031l-2.207031,-2.028229l2.028244,2.207031c1.887833,2.054352 2.38588,2.477692 2.38588,2.028229zm2.354202,-0.043335c0,-0.122253 -0.463516,-0.585724 -1.029968,-1.029999c-0.933472,-0.732056 -0.95433,-0.711243 -0.222229,0.222229c0.76886,0.980408 1.252197,1.292145 1.252197,0.80777zm7.062576,-2.720551c-0.346451,-0.6474 -0.762375,-1.177124 -0.924255,-1.177124c-0.161819,0 -0.010757,0.529724 0.335724,1.177124c0.346451,0.647369 0.762375,1.177094 0.924255,1.177094c0.161819,0 0.010757,-0.529724 -0.335724,-1.177094zm33.841675,-7.505707c6.464249,-3.243195 27.763245,-9.72876 34.334,-10.454712c4.27475,-0.472321 3.826233,0.003815 10.398438,-11.038055c4.527847,-7.607208 8.068344,-12.323654 13.244888,-17.644165c2.125916,-2.184998 3.680206,-3.972702 3.454071,-3.972702c-4.418579,-3.588287 -7.881165,-8.49202 -11.339478,-12.927979c-1.843781,-0.707932 -10.841049,-11.161591 -13.997238,-16.263c-5.920242,-9.569046 -29.680389,-33.482666 -54.933182,-55.287903c-4.856323,-4.193405 -20.816238,-17.121323 -23.223495,-18.811691c-0.921982,-0.647392 -3.862457,-2.735977 -6.534363,-4.641304c-6.403656,-4.566315 -18.358002,-12.640709 -21.934341,-14.815247c-6.228699,-3.787163 -7.26001,-4.392433 -9.934036,-5.830048c-1.92997,-1.03759 -3.687553,-1.492477 -5.766922,-1.492477c-2.199478,0 -4.911438,-0.762169 -10.24852,-2.880348c-6.584465,-2.61322 -14.864357,-5.250969 -19.464256,-6.200737c-0.971092,-0.200539 -2.030518,-0.424301 -2.35421,-0.497269c-0.69268,-0.156181 -0.938385,3.130363 -0.29808,3.987137c0.24192,0.323692 1.292915,3.501862 2.335571,7.06263c1.042618,3.560715 3.157692,9.519768 4.700104,13.242363c1.542458,3.72258 3.541451,8.7547 4.442207,11.182449c1.79599,4.840485 4.174057,10.388908 5.045006,11.771004c0.306,0.485565 0.721397,1.280136 0.923073,1.765656c1.062317,2.557693 4.460899,9.829605 4.95118,10.593887c0.311432,0.48558 1.128975,2.074677 1.816788,3.531326c0.687859,1.456665 1.535469,3.178177 1.883698,3.825577c0.348228,0.64743 2.324821,4.487701 4.392441,8.533981c2.067665,4.04628 4.093155,7.754166 4.50106,8.239731c0.407936,0.485535 1.667229,2.604324 2.798431,4.708389c2.453102,4.562881 11.042671,19.215744 13.455421,22.95343c0.940231,1.45668 2.034332,3.310623 2.431198,4.119888c0.396881,0.809265 1.460495,2.341324 2.363586,3.404617c0.903091,1.063309 1.641968,2.183029 1.641968,2.488251c0,0.305267 2.340347,3.805283 5.200729,7.777817c2.860382,3.972549 5.525818,7.833038 5.923203,8.578812c0.397385,0.745819 3.036377,3.661102 5.864471,6.478424c2.828033,2.817322 6.734787,7.504074 8.681564,10.415009c1.946854,2.910934 4.383224,6.522812 5.414246,8.026413c1.031082,1.503662 1.874588,3.330536 1.874588,4.059784c0,0.863205 1.723694,3.113968 4.93898,6.449295c3.640915,3.776886 5.49704,6.283752 7.062576,9.538666c1.168045,2.428375 2.123672,4.701324 2.123672,5.050903c0,0.349579 0.256149,1.309296 0.569183,2.132629l0.569168,1.497009l4.580627,-3.442871c2.519363,-1.893585 6.169754,-4.240143 8.111984,-5.214569zm-42.375656,5.740051c-1.264343,-1.2948 -2.431213,-2.354218 -2.593079,-2.354218c-0.16188,0 0.740173,1.059418 2.004532,2.354218c1.264343,1.29483 2.431259,2.354218 2.593079,2.354218c0.16188,0 -0.740173,-1.059387 -2.004532,-2.354218zm4.414124,2.131989c0,-0.122253 -0.46347,-0.585693 -1.029922,-1.029968c-0.933517,-0.732056 -0.95433,-0.711273 -0.222275,0.222198c0.768906,0.980408 1.252197,1.292145 1.252197,0.80777zm-11.771011,-0.645477c0,-0.356995 -3.319809,-2.083099 -3.943451,-2.050385c-0.25885,0.01355 0.456284,0.532135 1.589249,1.152405c2.319748,1.269989 2.354202,1.283142 2.354202,0.89798zm6.474091,0.056915c0,-0.122223 -0.463531,-0.585693 -1.029984,-1.029968c-0.933472,-0.732056 -0.95433,-0.711273 -0.222214,0.222198c0.768845,0.980408 1.252197,1.292145 1.252197,0.80777zm12.359543,-2.131989c-0.346512,-0.6474 -0.762421,-1.177124 -0.92424,-1.177124c-0.161865,0 -0.010773,0.529724 0.335709,1.177124c0.346451,0.6474 0.762375,1.177094 0.924194,1.177094c0.161865,0 0.010818,-0.529694 -0.335663,-1.177094zm-14.71376,0.366333c0,-0.122192 -0.46347,-0.585693 -1.029984,-1.029968c-0.933456,-0.732056 -0.954254,-0.711273 -0.222214,0.222198c0.76886,0.980408 1.252197,1.292206 1.252197,0.80777zm10.593903,0.019165c0,-0.111694 -0.595901,-0.707581 -1.324234,-1.324249l-1.324234,-1.121155l1.121155,1.324219c1.05365,1.244446 1.527313,1.592194 1.527313,1.121185zm-20.157867,-0.791229c-0.566452,-0.14801 -1.493408,-0.14801 -2.059906,0c-0.566513,0.148071 -0.102982,0.269196 1.029984,0.269196c1.13295,0 1.59642,-0.121124 1.029922,-0.269196zm17.215103,0.226929c0,-0.098389 -0.993195,-1.091553 -2.207031,-2.207062l-2.207092,-2.028259l2.028244,2.207092c1.887833,2.05426 2.38588,2.477631 2.38588,2.028229zm-10.005341,-1.277435c0,-0.433716 -3.380936,-2.076904 -4.237762,-2.059631c-0.420731,0.008514 0.294464,0.516724 1.589294,1.129456c2.822601,1.335693 2.648468,1.274506 2.648468,0.930176zm-6.363708,-0.711456c-0.424866,-0.170013 -0.93248,-0.149109 -1.128036,0.046478c-0.195572,0.195557 0.152039,0.334625 0.772461,0.309082c0.685638,-0.028198 0.825058,-0.167664 0.355576,-0.35556zm10.779785,-0.771851c-0.198975,-0.322021 -0.942932,-0.869476 -1.653259,-1.216644c-1.112564,-0.543793 -1.087677,-0.464508 0.179947,0.572296c1.647766,1.347839 2.004532,1.503845 1.473312,0.644348zm8.532028,0.406525c0,-0.098389 -0.993195,-1.091553 -2.207092,-2.207092l-2.207031,-2.028229l2.028244,2.207092c1.887833,2.05426 2.38588,2.477692 2.38588,2.028229zm-0.588562,-3.058228c-1.758255,-1.780334 -3.329224,-3.237 -3.491104,-3.237c-0.161819,0 1.144302,1.456665 2.902573,3.237c1.758255,1.780396 3.329224,3.23703 3.491104,3.23703c0.161819,0 -1.144318,-1.456635 -2.902573,-3.23703zm-18.134689,1.657898c-0.424866,-0.170013 -0.932495,-0.149109 -1.128052,0.046448c-0.195572,0.195557 0.152039,0.334686 0.772476,0.309143c0.685638,-0.028229 0.825104,-0.167694 0.355576,-0.355591zm14.603394,0.210358c0,-0.105438 -0.728348,-0.83374 -1.6185,-1.6185l-1.61853,-1.426849l1.426849,1.61853c1.333542,1.512756 1.810181,1.888428 1.810181,1.426819zm7.062622,-1.169556c0,-0.101288 -0.860748,-0.962036 -1.912781,-1.912781l-1.912781,-1.728668l1.728607,1.912781c1.611343,1.78302 2.096954,2.18335 2.096954,1.728668zm-21.040665,-0.79422c-0.404648,-0.163208 -1.066772,-0.163208 -1.471405,0c-0.404633,0.1633 -0.073547,0.296906 0.735672,0.296906c0.809265,0 1.140366,-0.133606 0.735733,-0.296906zm10.446716,-1.060883c0,-0.150421 -0.595901,-0.562286 -1.324234,-0.915222c-1.271606,-0.616241 -1.278854,-0.605377 -0.181747,0.27356c1.200806,0.962006 1.505981,1.092072 1.505981,0.641663zm-10.483521,-0.71698c-0.424866,-0.170044 -0.93248,-0.149139 -1.128036,0.046448c-0.195633,0.195587 0.152039,0.334686 0.772461,0.309113c0.685638,-0.028229 0.825058,-0.167725 0.355576,-0.35556zm6.952255,-1.363617c-0.48558,-0.313812 -1.147659,-0.570557 -1.471359,-0.570557c-0.323746,0 -0.191315,0.256744 0.29425,0.570557c0.485565,0.313751 1.147659,0.570496 1.471359,0.570496c0.323746,0 0.191315,-0.256744 -0.29425,-0.570496zm6.47403,-0.26944c0,-0.380737 -4.993362,-3.262848 -5.642929,-3.25708c-0.295288,0.002655 0.78743,0.783875 2.405914,1.736023c3.24295,1.907806 3.237015,1.905029 3.237015,1.521057zm-12.837738,-1.898254c-0.424866,-0.170013 -0.932465,-0.149109 -1.128036,0.046478c-0.195618,0.195557 0.152039,0.334656 0.772461,0.309113c0.685638,-0.02829 0.825058,-0.167755 0.355576,-0.355591zm4.119827,-2.354218c-0.42482,-0.169983 -0.932495,-0.149078 -1.128036,0.046478c-0.195572,0.195557 0.152023,0.334656 0.772461,0.309082c0.685638,-0.028198 0.825104,-0.167633 0.355576,-0.35556zm9.846878,-7.690521c-8.016632,-10.818802 -7.076187,-9.929733 -10.929489,-10.332489c-3.823029,-0.399582 -13.054153,0.373672 -14.73555,1.234329c-0.586227,0.300034 -1.893326,0.701981 -2.904739,0.893204c-1.011353,0.191208 -3.575867,1.302444 -5.698914,2.469467l-3.860092,2.12175l2.167664,3.390793l2.167603,3.390823l2.67688,-1.385178c4.093826,-2.118408 8.576416,-3.092285 14.268768,-3.099945c6.826645,-0.009201 13.557098,1.38768 16.895996,3.506683c1.456665,0.924515 2.704102,1.703934 2.772049,1.732071c0.067947,0.028168 -1.201111,-1.736511 -2.820175,-3.921509zm232.567551,2.059921c-1.610809,-4.122513 -3.225006,-7.416245 -4.398346,-8.974747c-0.731384,-0.971451 -2.311188,-3.451981 -3.51059,-5.512314c-1.199341,-2.060318 -3.342102,-4.907455 -4.761566,-6.32695c-2.806763,-2.806763 -4.425079,-3.59436 -1.977417,-0.962341c1.565308,1.683167 8.131836,10.498932 8.131836,10.917191c0,0.131271 1.473755,2.926285 3.274841,6.21106c3.150635,5.745804 4.332184,7.440201 3.241241,4.648102zm-271.155609,-1.870987c-0.923737,-1.109924 -2.154083,-2.632828 -2.734207,-3.384125l-0.370789,0.105316c0.636322,1.368927 4.006439,5.296967 4.544693,5.296967c0.131851,0 -0.516006,-0.908157 -1.439697,-2.018158zm-4.408989,-6.437698c-2.450005,-3.881088 -12.922859,-19.434555 -14.279175,-20.97168c-1.300583,-1.473938 -3.44593,-4.768188 -5.075539,-7.79364c-0.478065,-0.887619 -2.577667,-4.463089 -4.665726,-7.94545c-17.016953,-28.379959 -30.012672,-55.488052 -40.561806,-84.608711c-4.069,-11.232544 -9.494053,-30.301552 -9.494053,-33.371613c0,-0.91391 -0.469532,-0.61039 -2.145302,1.387047c-2.97987,3.551872 -3.568314,5.247093 -4.353832,12.542709c-0.824944,7.662361 -2.054783,11.467384 -5.206306,16.10817l-2.372013,3.493011l1.978611,4.762665c2.372738,5.711075 11.244186,22.912628 14.31736,27.760864c1.207539,1.905136 3.65226,5.792343 5.432613,8.638214c5.768314,9.220657 9.384861,14.37114 18.924046,26.950729c9.290985,12.252335 10.506332,13.805878 17.199883,21.985275c3.078819,3.762268 2.950531,4.323608 4.211884,5.610519c9.375191,9.564896 16.055496,16.760727 26.089355,25.451889zm6.681953,-1.794067c5.343552,-2.904099 11.77179,-4.379395 20.472397,-4.698425c4.046295,-0.148376 7.447403,-0.288712 7.557999,-0.31189c0.231735,-0.048508 -3.932175,-7.772964 -4.534607,-8.412125c-0.59166,-0.627716 -10.240433,1.78418 -15.03952,3.759476c-3.846985,1.583405 -10.401382,5.238663 -12.848602,7.165405c-0.864639,0.68074 -0.925751,1.104141 -0.38382,2.658707c0.354538,1.016998 0.741989,1.84903 0.861008,1.84903c0.119034,0 1.880859,-0.904572 3.915146,-2.010178zm150.04039,-30.236526c2.720612,-1.895813 6.209473,-3.17804 9.368713,-4.707657c20.209015,-6.715652 23.072998,-7.317398 36.360443,-5.408142c-3.513855,-6.200836 -10.752838,-15.201492 -13.591736,-17.227936c-14.637207,-15.47142 -36.575653,-21.843567 -49.816772,-14.316635c-2.401825,1.365372 -3.553253,-2.54039 -9.369232,-8.429703c-6.737442,-8.091995 -15.783295,-13.693619 -23.432358,-20.86322c-6.480331,-7.105179 -25.484131,-23.764229 -41.419815,-36.309357c-2.516342,-1.980934 -12.45401,-9.218384 -16.773727,-12.216057c-2.265884,-1.572426 -5.708923,-3.964005 -7.651138,-5.314568c-1.94223,-1.350578 -3.853043,-2.455956 -4.246292,-2.456367c-0.39325,-0.00042 -1.00592,-0.544411 -1.361542,-1.208878l-0.646515,-1.208054l2.312912,1.179955c1.272064,0.648933 3.114838,1.854713 4.094925,2.679451c0.980133,0.824692 2.050659,1.499512 2.37886,1.499512c0.328232,0 2.05983,1.191795 3.848053,2.64846c1.788223,1.456665 3.421661,2.64846 3.629974,2.64846c0.208282,0 1.881424,1.136177 3.718124,2.524734c4.236862,3.203217 6.838974,4.850212 6.309616,3.993645c-0.473724,-0.766464 -10.482788,-8.447151 -13.86319,-10.638199c-1.248535,-0.809265 -6.062012,-4.028679 -10.696533,-7.154228c-4.634583,-3.125542 -11.604675,-7.611748 -15.48909,-9.969322c-12.254501,-7.437668 -33.769768,-17.980282 -35.409676,-17.351002c-0.466003,0.178795 -0.698105,0.083733 -0.515793,-0.211296c0.182365,-0.295074 -1.724045,-1.320713 -4.236412,-2.279171c-5.407097,-2.062912 -7.216431,-2.638012 -7.216431,-2.293766c0,0.139359 2.400009,1.1119 5.333412,2.161179c2.933388,1.049282 5.218773,2.022442 5.07869,2.162579c-0.140137,0.140091 -2.819748,-0.566917 -5.95472,-1.571125c-3.13501,-1.004261 -5.97464,-1.734352 -6.310242,-1.622467c-0.335648,0.111881 1.422035,0.81382 3.905991,1.559902c2.483948,0.746078 4.379295,1.49345 4.211929,1.660866c-0.167404,0.167408 -2.043503,-0.27438 -4.169136,-0.981754c-2.125626,-0.707371 -4.156509,-1.18885 -4.513062,-1.070034c-0.35656,0.11887 1.43187,0.860035 3.974289,1.647045c2.542435,0.787018 4.159828,1.525436 3.5942,1.640942c-0.565628,0.115509 -2.49575,-0.339012 -4.289093,-1.009953c-3.960999,-1.482014 -3.805023,-1.478649 -3.805023,-0.082951c0,0.944332 1.321594,1.548409 7.798309,3.564434c4.289047,1.335045 9.122498,2.846046 10.741028,3.357746c4.050163,1.280556 11.521416,4.166237 12.948105,5.001122c1.595245,0.933517 11.061768,5.773285 11.292465,5.773285c0.101334,0 0.184296,-0.397293 0.184296,-0.882805c0,-0.485573 0.437439,-0.882858 0.972122,-0.882858c1.620544,0 17.341843,9.43232 18.949081,11.368904c0.564911,0.680672 0.514557,0.927467 -0.248917,1.220428c-0.611267,0.234581 -1.357193,-0.141647 -2.065079,-1.041519c-0.609467,-0.774857 -2.502991,-2.136658 -4.20784,-3.026291c-1.704865,-0.889633 -4.873413,-2.773651 -7.041168,-4.186684c-2.167755,-1.413033 -4.036957,-2.569176 -4.153809,-2.569176c-0.116806,0 -0.219528,1.258034 -0.228226,2.795586c-0.022858,4.037636 -3.175217,10.202621 -7.322098,14.319588l-3.308121,3.284256l3.002792,1.687775c3.775009,2.121857 18.255066,11.742752 23.239426,15.440857c2.066483,1.533195 5.821304,4.244278 8.34407,6.024681c2.522705,1.780357 6.261322,4.549446 8.308044,6.153595c2.046646,1.604103 5.442703,4.220993 7.546753,5.815308c4.070084,3.083984 6.31424,4.962204 12.243729,10.247177c2.040359,1.818542 4.510284,3.897079 5.48877,4.618988c0.978455,0.721863 2.089981,1.686996 2.470016,2.14473c0.380066,0.457733 1.882828,1.732285 3.339539,2.832382c2.292526,1.731339 8.949081,7.889389 14.955139,13.835052c1.000168,0.990189 3.672424,3.469742 5.93837,5.510071c2.265915,2.040405 4.490814,4.408493 4.944153,5.26236c0.453369,0.853882 1.910019,2.624252 3.237045,3.934036c1.326981,1.309845 3.736969,4.051819 5.355453,6.093201c1.61853,2.041382 3.413177,4.146469 3.988174,4.677994c0.574982,0.531464 1.888962,2.358154 2.919983,4.05928c2.417511,3.988876 3.391495,4.019577 3.391495,0.106918c2.460342,-11.913116 7.912064,-21.716492 19.818344,-23.276688c-14.12088,6.498856 -16.015701,15.784622 -19.215363,26.328979c-0.014389,2.119293 1.646652,4.802261 4.837234,7.813385c0.730453,0.689377 1.99025,2.045578 2.799454,3.013824c0.809265,0.968231 14.612701,14.666519 15.356689,14.170288l10.037933,-6.695099zm-153.487915,-145.758286c-5.604584,-2.857582 -10.271286,-4.767265 -14.286781,-5.846355c-6.059868,-1.628418 -11.660057,-3.776871 -10.054459,-3.857239c4.153511,-0.207932 30.597038,10.357609 32.915749,13.151485c1.198685,1.444344 0.355576,1.105324 -8.574509,-3.447891zm7.440506,1.803017c-2.333603,-1.510429 -8.64856,-4.816109 -13.695221,-7.168983c-3.91111,-1.823509 -5.076988,-2.97086 -1.77803,-1.749821c4.030235,1.491749 17.541382,8.38464 18.353653,9.363445c1.195847,1.440819 -0.331619,1.205048 -2.880402,-0.444641zm-28.250435,-11.521152c-1.780342,-0.594398 -2.972153,-1.096222 -2.64846,-1.115162c0.9608,-0.056149 6.087563,1.390884 6.54364,1.846958c0.639267,0.639267 -0.339218,0.455448 -3.89518,-0.731796zm-9.416786,-1.20153c-0.760834,-0.49168 -0.745308,-0.571735 0.112404,-0.579548c0.547363,-0.004921 1.15889,0.255848 1.358955,0.579548c0.460358,0.744888 -0.318779,0.744888 -1.471359,0zm226.591888,136.910069c0,-0.122238 -0.46347,-0.585724 -1.029968,-1.029999c-0.933472,-0.732086 -0.954285,-0.711243 -0.222229,0.222229c0.768921,0.980347 1.252197,1.292145 1.252197,0.80777zm-1.765656,-2.310852c0,-0.098328 -0.993195,-1.091507 -2.207031,-2.207031l-0.178864,0.178787c1.887848,2.054321 2.385895,2.477692 2.385895,2.028244zm-5.296936,-5.340332c0,-0.122192 -0.463531,-0.585724 -1.029968,-1.029999c-0.933472,-0.732056 -0.954315,-0.711243 -0.222229,0.222229c0.76886,0.980408 1.252197,1.292191 1.252197,0.80777zm-3.575867,-3.072296c-18.6091,-13.001007 -15.669891,-12.90863 0.306458,0.887924c0.217865,0.352524 0.559052,0.640915 0.75824,0.640915c0.199188,0 -0.279968,-0.687958 -1.064697,-1.528839zm-53.897156,-18.967987c-5.844696,-7.533401 -10.959152,-16.093933 -15.85202,-24.025925c-0.837006,-0.548447 -5.067245,-5.388 -9.400589,-10.754578c-16.717682,-20.704094 -20.041168,-24.463524 -35.867294,-40.572365c-10.881439,-11.07579 -25.016266,-24.094383 -32.570221,-29.998131c-2.837662,-2.217697 -3.466171,-2.457142 -6.474075,-2.466354c-5.337906,-0.016403 -10.255875,-1.342705 -24.586685,-6.630726c-17.947319,-6.622498 -25.812958,-7.840591 -33.177238,-5.137897c-1.775795,0.651688 -3.298653,1.184921 -3.38414,1.184921c-0.085541,0 -2.309082,0.827538 -2.309082,1.086906c0,0.259373 4.338608,0.6091 7.009171,1.529266c2.670509,0.920162 5.377914,2.032223 6.016449,2.471214c0.638496,0.438946 1.58226,0.798141 2.097282,0.798141c1.51265,0 27.873581,13.518501 36.188202,18.558174c30.267853,18.345886 60.432877,41.848885 86.749664,67.590668c7.764999,7.595398 20.131897,20.652039 24.178528,25.527084c2.390503,2.879837 2.931244,3.208344 1.38205,0.8396zm-220.708225,-24.552628c-0.191681,-0.499542 -0.474754,-0.781998 -0.629025,-0.627731c-0.154266,0.154266 -0.10593,0.562988 0.107433,0.908218c0.580379,0.938995 0.919552,0.756577 0.521591,-0.280487zm-2.942764,-5.885529c-0.191681,-0.499496 -0.474701,-0.781998 -0.628971,-0.62767c-0.154316,0.154266 -0.10593,0.562927 0.107433,0.908203c0.580326,0.938995 0.919548,0.756577 0.521538,-0.280533zm-2.193371,-4.778137c-0.49794,-0.918762 -0.915924,-1.484344 -0.928913,-1.25679c-0.039848,0.6996 1.329403,3.432159 1.5895,3.172058c0.134602,-0.134537 -0.162651,-0.996445 -0.660587,-1.915268zm-2.781666,-7.00663c-0.995209,-2.5681 -2.316381,-6.390762 -2.935986,-8.49482c-0.619551,-2.10405 -1.3706,-4.620132 -1.668938,-5.591225c-1.840229,-5.990318 -2.604784,-12.283638 -2.64546,-21.776405c-0.037622,-8.763756 0.118767,-10.519272 1.260162,-14.147003c1.313417,-4.174461 4.361076,-9.061836 8.511065,-13.648853c1.238121,-1.368473 2.251129,-2.707973 2.251129,-2.976604c0,-0.268639 1.034168,-0.944698 2.298214,-1.502407c1.264046,-0.557713 2.726814,-1.668056 3.250572,-2.467442c0.704166,-1.074692 1.474773,-1.453499 2.956684,-1.453499c1.929707,0 3.85408,-1.216282 3.85408,-2.435928c0,-1.171776 -5.767639,0.969383 -11.771,4.36982c-7.226421,4.09317 -12.359556,9.388744 -12.359556,12.750633c0,0.66349 -0.264858,1.206345 -0.588554,1.206345c-0.323694,0 -0.588552,0.267082 -0.588552,0.593521c0,0.948112 2.196426,-0.670418 3.034208,-2.235855c0.41317,-0.771957 2.035894,-2.479244 3.606146,-3.7939l2.854942,-2.390282l-1.913921,2.883305c-1.052647,1.585773 -2.561779,3.673267 -3.353554,4.638821c-2.213503,2.69912 -5.508686,10.235527 -6.051802,13.841003c-1.225283,8.133804 2.928843,27.167091 9.283018,42.53286c1.173588,2.837975 2.222145,5.071556 2.330147,4.963554c0.108006,-0.108002 -0.617893,-2.297546 -1.613045,-4.865639zm-5.821928,-59.636913c0,-1.029156 4.685598,-5.607372 6.915457,-6.757c1.676029,-0.86412 1.912781,-0.875042 1.912781,-0.08823c0,0.493847 -0.416946,0.897911 -0.926529,0.897911c-0.509583,0 -2.495903,1.496975 -4.414122,3.326645c-1.918165,1.82962 -3.487587,3.008953 -3.487587,2.620674zm119.53966,-47.179134c-2.716309,-1.276517 -5.09996,-2.298371 -5.296982,-2.270841c-0.54834,0.076693 8.975739,4.625312 9.647141,4.607408c0.323685,-0.008593 -1.63385,-1.060049 -4.350159,-2.336567zm-7.715103,-3.497989c-0.485565,-0.313811 -1.280136,-0.556003 -1.765656,-0.538199c-0.582138,0.021372 -0.481903,0.204672 0.29425,0.538199c1.618011,0.695261 2.547241,0.695261 1.471405,0zm39.411819,301.434482c0.387726,-0.756042 0.866409,-1.213226 1.063675,-1.01593c0.197266,0.197266 -0.12001,0.815887 -0.704987,1.374634c-1.016891,0.971252 -1.032684,0.955444 -0.358688,-0.358704zm2.375275,-2.750793c0,-0.69455 2.459381,-4.499512 2.73204,-4.226837c0.418961,0.418945 -0.79866,3.066284 -1.787903,3.887299c-0.519318,0.430969 -0.944138,0.58374 -0.944138,0.339539zm-34.430206,-1.866699c-5.997253,-1.346832 -11.333466,-5.981873 -12.920685,-11.222961c-0.675278,-2.229706 0.705719,-1.494904 2.298538,1.223022c3.667465,6.258057 11.718369,10.056335 18.6259,8.787445c1.748276,-0.321167 3.708359,-0.789246 4.355804,-1.040161c1.047775,-0.406128 1.080124,-0.358643 0.29425,0.432831c-1.853226,1.866302 -8.311264,2.795135 -12.653809,1.819824zm-0.163788,-2.818298c-1.384827,-0.432404 -3.455505,-1.501373 -4.601456,-2.375458c-2.052612,-1.565613 -5.534409,-5.877075 -5.534409,-6.85318c0,-1.137238 1.21022,-0.377716 2.080872,1.305939c1.692642,3.273193 4.350677,5.066925 9.539795,6.437744c2.672318,0.705963 4.858765,1.523468 4.858765,1.816772c0,0.764923 -3.401016,0.587067 -6.343567,-0.331818zm39.330109,-3.549103c-0.01445,-0.874542 1.036133,-2.369324 1.405518,-1.999908c0.176178,0.176117 -0.065872,0.830566 -0.537781,1.454346c-0.471909,0.623749 -0.862411,0.869263 -0.867737,0.545563zm1.149368,-4.085114c0,-0.504639 0.264862,-0.917572 0.588547,-0.917572c0.3237,0 0.588547,0.249237 0.588547,0.553833c0,0.304596 -0.264847,0.717499 -0.588547,0.917572c-0.323685,0.200073 -0.588547,-0.049164 -0.588547,-0.553833zm-53.867676,-15.047394c0.246857,-0.806732 0.783447,-1.864044 1.192429,-2.349548c0.408981,-0.485565 0.928558,-1.489349 1.154602,-2.230682c0.387863,-1.271729 5.745178,-6.009064 6.795547,-6.009064c0.268112,0 0.972702,-0.182007 1.565643,-0.40448c0.949051,-0.356049 0.981384,-0.285553 0.27034,0.588562c-0.444275,0.546173 -1.050888,0.993042 -1.348083,0.993042c-0.685181,0 -4.067245,2.36615 -5.047546,3.531311c-0.408463,0.485565 -1.229218,1.94223 -1.823822,3.23703c-0.594604,1.29483 -1.559631,2.749329 -2.144516,3.232391c-0.987137,0.815247 -1.031174,0.773102 -0.614594,-0.588562zm4.429443,-9.109711c0,-0.552948 4.656876,-3.360321 5.236526,-3.156891c0.322769,0.113281 -0.723465,0.934174 -2.324875,1.82428c-1.601395,0.890106 -2.911652,1.489777 -2.911652,1.332611zm1.471359,-2.91687c0.97113,-0.824799 2.030502,-1.492462 2.354218,-1.483795c0.676727,0.018158 -1.200394,1.553406 -2.94278,2.406799c-0.647385,0.317047 -0.382523,-0.098267 0.588562,-0.923004zm-1.471359,-0.639557c0,-0.572021 4.83786,-3.275024 5.479126,-3.061249c0.376434,0.125427 -0.702393,0.924683 -2.397354,1.776001c-1.694977,0.851349 -3.081772,1.429718 -3.081772,1.285248zm-4.369461,-3.610199c-0.704895,-1.836853 5.324615,-6.677155 9.411774,-7.555634c1.045547,-0.22467 0.318314,0.333069 -1.844574,1.414795c-1.963806,0.982178 -4.082565,2.389923 -4.708374,3.128326c-1.131973,1.335785 -1.131775,1.337616 0.041138,0.352905c1.40741,-1.181396 7.327545,-3.998993 8.419678,-4.007172c1.298813,-0.009674 0.222015,1.017303 -1.500534,1.431152c-0.893265,0.2146 -2.744568,1.183746 -4.114029,2.153595c-1.369507,0.969788 -2.958603,1.684296 -3.531311,1.587738c-0.77005,-0.129791 -1.004837,0.169464 -0.901123,1.148682c0.162949,1.539368 -0.722336,1.779785 -1.272644,0.345612zm6.429367,0.390137c0.200073,-0.323761 0.628616,-0.588562 0.952301,-0.588562c0.3237,0 0.424866,0.264801 0.224808,0.588562c-0.200073,0.3237 -0.628601,0.588531 -0.952301,0.588531c-0.3237,0 -0.424866,-0.264832 -0.224808,-0.588531zm2.319595,-2.677765c1.265244,-0.945313 2.341995,-1.14151 1.844162,-0.33606c-0.175903,0.284607 -0.919846,0.668701 -1.653259,0.853546c-1.286392,0.324249 -1.293137,0.305969 -0.190903,-0.517487zm10.628525,-4.97345c-0.200073,-0.3237 0.049149,-0.588531 0.553818,-0.588531c0.504669,0 0.917572,0.264832 0.917572,0.588531c0,0.3237 -0.249222,0.588562 -0.553818,0.588562c-0.304596,0 -0.717514,-0.264862 -0.917572,-0.588562zm-118.002743,-191.718582c-0.004604,-2.125473 8.0863,-8.929356 12.818424,-10.779316c1.527092,-0.596989 2.485039,-1.097824 2.128689,-1.112988c-1.469185,-0.062408 -4.799301,1.493816 -8.435562,3.942211c-3.121357,2.10162 -3.468445,2.241291 -1.804729,0.726315c1.132961,-1.031742 3.317951,-2.665543 4.855545,-3.630676c2.733177,-1.715721 3.665611,-2.702286 1.921375,-2.032951c-0.731174,0.28059 -0.756172,0.146503 -0.152767,-0.819717c1.211468,-1.93985 5.914764,-2.300133 5.449173,-0.417416c-0.684963,2.769711 -1.261356,3.419434 -4.317039,4.866207c-4.024082,1.905334 -7.322056,4.338257 -10.256073,7.566055c-1.212967,1.33448 -2.206154,2.095985 -2.207035,1.692276zm15.006413,-13.68549c0.77615,-0.333477 0.876392,-0.516827 0.294308,-0.538151c-0.485573,-0.017803 -1.28009,0.224392 -1.765663,0.538151c-1.075882,0.695313 -0.146606,0.695313 1.471355,0zm-12.760979,13.191639c1.495937,-2.897324 8.578545,-8.008152 12.172428,-8.78368l1.765656,-0.381035l-1.471355,1.210487c-0.809265,0.66576 -1.72472,1.216385 -2.034393,1.223576c-0.718033,0.016716 -7.145176,4.428406 -9.37151,6.432678c-1.44833,1.304001 -1.602596,1.347313 -1.060825,0.297974zm2.699745,-8.986122c0.616653,-0.694485 1.360611,-1.262753 1.653206,-1.262753c0.828568,0 -0.052319,1.097824 -1.482948,1.848148c-1.282467,0.672646 -1.283661,0.668556 -0.170258,-0.585396zm44.200768,-19.949215c0.822975,-7.280655 3.361992,-15.002428 6.23867,-18.973568c2.431267,-3.356298 2.773949,-2.609495 0.58358,1.271652c-2.274719,4.030548 -4.441696,10.692997 -5.374756,16.524811c-0.849167,5.307686 -2.022285,6.261593 -1.447495,1.177105zm-1.727165,-1.414639c0.862526,-7.903467 4.633026,-17.843555 7.884689,-20.786268c1.653358,-1.496246 1.510582,-0.924772 -0.836174,3.347036c-2.882164,5.246468 -4.787346,10.627794 -5.639046,15.927979c-0.903397,5.621914 -1.984612,6.781216 -1.40947,1.511253zm69.406853,-21.621668c-2.26593,-0.897914 -5.285904,-2.23265 -6.71109,-2.966154c-2.909653,-1.497541 -6.7052,-2.938676 -8.829376,-3.35252c-0.778442,-0.151628 -1.837814,-0.488521 -2.354233,-0.748616c-0.516403,-0.260096 -2.527969,-0.772058 -4.470215,-1.137723c-5.842728,-1.099895 -5.962059,-1.13731 -3.825554,-1.1991c4.582863,-0.132532 15.188988,3.217814 24.937187,7.877384c7.164413,3.424558 7.705261,4.083386 1.253281,1.526729zm-52.086693,-2.99234c0,-1.031792 12.018478,-5.260387 12.781685,-4.497127c0.363541,0.363492 0.122292,0.448776 -4.198219,1.483207c-1.591316,0.380983 -4.173538,1.305446 -5.73835,2.05432c-1.564819,0.748925 -2.845116,1.180728 -2.845116,0.959599z"/>
  <path fill="#303b47" fill-rule="evenodd" stroke-width="0.25pt" id="path2857" d="m33.487598,6.04399c3.072323,1.56375 0.563763,6.00509 -4.211859,4.52413c-2.79282,-0.86608 -4.86157,-1.87237 -7.38941,-2.11479c-2.644051,-0.25358 -3.189289,1.23315 -3.244699,2.93364c-0.252781,7.757701 -2.72668,5.944331 -2.23246,-2.09985c0.494221,-8.00214 4.39937,-7.46797 7.7099,-6.78799c3.310539,0.67999 6.32955,1.99808 9.368528,3.54486z"/>
  <path fill="#303b47" fill-rule="evenodd" stroke-width="0.25pt" id="path3744" d="m18.609289,11.49152c0,1.68668 -0.230539,3.74312 -0.86137,4.521589c-0.630838,0.778481 4.17206,1.32258 6.026852,2.072351c2.228809,0.900949 3.93812,-2.64554 2.93656,-3.42125c-2.312469,-1.79102 -7.429371,-2.92047 -8.102041,-3.17269z"/>
  <path fill="#303b47" fill-rule="evenodd" stroke-width="0.25pt" id="path3748" d="m10.22563,11.53355c-6.04606,0.98393 -5.09751,8.59885 -3.23161,12.55567c1.69988,-1.278721 1.9863,-5.75675 2.96625,-6.637671c0.13924,-3.036799 0.12611,-5.917999 0.26536,-5.917999z"/>
 </g>
</svg>